<?xml version="1.0" encoding="UTF-8" standalone="no"?>
<!DOCTYPE svg PUBLIC "-//W3C//DTD SVG 1.1//EN"
 "http://www.w3.org/Graphics/SVG/1.1/DTD/svg11.dtd">
<!-- Generated by graphviz version 2.40.1 (20161225.0304)
 -->
<!-- Title: dependencies Pages: 1 -->
<svg width="1224pt" height="211pt"
 viewBox="0.00 0.00 1224.00 211.00" xmlns="http://www.w3.org/2000/svg" xmlns:xlink="http://www.w3.org/1999/xlink">
<g id="graph0" class="graph" transform="scale(1 1) rotate(0) translate(4 207)">
<title>dependencies</title>
<polygon fill="#ffffff" stroke="transparent" points="-4,4 -4,-207 1220,-207 1220,4 -4,4"/>
<text text-anchor="start" x="587.0091" y="-42.4" font-family="sans-serif" font-weight="bold" font-size="14.00" fill="#000000">Legend</text>
<polygon fill="#ffffb3" stroke="transparent" points="374,-10 374,-30 394,-30 394,-10 374,-10"/>
<text text-anchor="start" x="397.629" y="-15.4" font-family="sans-serif" font-size="14.00" fill="#000000"> &#160;Declarations</text>
<polygon fill="#8dd3c7" stroke="transparent" points="487,-10 487,-30 507,-30 507,-10 487,-10"/>
<text text-anchor="start" x="510.7251" y="-15.4" font-family="sans-serif" font-size="14.00" fill="#000000"> &#160;Module</text>
<polygon fill="#80b1d3" stroke="transparent" points="573,-10 573,-30 593,-30 593,-10 573,-10"/>
<text text-anchor="start" x="596.7812" y="-15.4" font-family="sans-serif" font-size="14.00" fill="#000000"> &#160;Bootstrap</text>
<polygon fill="#fdb462" stroke="transparent" points="670,-10 670,-30 690,-30 690,-10 670,-10"/>
<text text-anchor="start" x="693.6732" y="-15.4" font-family="sans-serif" font-size="14.00" fill="#000000"> &#160;Providers</text>
<polygon fill="#fb8072" stroke="transparent" points="766,-10 766,-30 786,-30 786,-10 766,-10"/>
<text text-anchor="start" x="789.7258" y="-15.4" font-family="sans-serif" font-size="14.00" fill="#000000"> &#160;Exports</text>
<g id="clust1" class="cluster">
<title>cluster_AppsModule</title>
<polygon fill="none" stroke="#000000" stroke-dasharray="1,5" points="8,-70 8,-195 1208,-195 1208,-70 8,-70"/>
</g>
<g id="clust2" class="cluster">
<title>cluster_AppsModule_declarations</title>
<polygon fill="none" stroke="#000000" points="540,-78 540,-130 1200,-130 1200,-78 540,-78"/>
</g>
<g id="clust7" class="cluster">
<title>cluster_AppsModule_imports</title>
<polygon fill="none" stroke="#000000" points="160,-78 160,-130 532,-130 532,-78 160,-78"/>
</g>
<g id="clust10" class="cluster">
<title>cluster_AppsModule_providers</title>
<polygon fill="none" stroke="#000000" points="16,-78 16,-130 152,-130 152,-78 16,-78"/>
</g>
<!-- AppsComponent -->
<g id="node1" class="node">
<title>AppsComponent</title>
<polygon fill="#ffffb3" stroke="#000000" points="1192.3837,-122 1081.6163,-122 1081.6163,-86 1192.3837,-86 1192.3837,-122"/>
<text text-anchor="middle" x="1137" y="-99.8" font-family="Times,serif" font-size="14.00" fill="#000000">AppsComponent</text>
</g>
<!-- AppsModule -->
<g id="node5" class="node">
<title>AppsModule</title>
<polygon fill="#8dd3c7" stroke="#000000" points="583.6011,-187 580.6011,-191 559.6011,-191 556.6011,-187 494.3989,-187 494.3989,-151 583.6011,-151 583.6011,-187"/>
<text text-anchor="middle" x="539" y="-164.8" font-family="Times,serif" font-size="14.00" fill="#000000">AppsModule</text>
</g>
<!-- AppsComponent&#45;&gt;AppsModule -->
<g id="edge1" class="edge">
<title>AppsComponent&#45;&gt;AppsModule</title>
<path fill="none" stroke="#000000" d="M1137,-122.2921C1137,-144.2057 1137,-178 1137,-178 1137,-178 593.9472,-178 593.9472,-178"/>
<polygon fill="#000000" stroke="#000000" points="593.9472,-174.5001 583.9472,-178 593.9472,-181.5001 593.9472,-174.5001"/>
</g>
<!-- AppsBulkImportComponent -->
<g id="node2" class="node">
<title>AppsBulkImportComponent</title>
<polygon fill="#ffffb3" stroke="#000000" points="1063.2133,-122 886.7867,-122 886.7867,-86 1063.2133,-86 1063.2133,-122"/>
<text text-anchor="middle" x="975" y="-99.8" font-family="Times,serif" font-size="14.00" fill="#000000">AppsBulkImportComponent</text>
</g>
<!-- AppsBulkImportComponent&#45;&gt;AppsModule -->
<g id="edge2" class="edge">
<title>AppsBulkImportComponent&#45;&gt;AppsModule</title>
<path fill="none" stroke="#000000" d="M975,-122.1061C975,-141.3391 975,-169 975,-169 975,-169 593.6107,-169 593.6107,-169"/>
<polygon fill="#000000" stroke="#000000" points="593.6107,-165.5001 583.6107,-169 593.6106,-172.5001 593.6107,-165.5001"/>
</g>
<!-- AppsRegisterComponent -->
<g id="node3" class="node">
<title>AppsRegisterComponent</title>
<polygon fill="#ffffb3" stroke="#000000" points="868.5365,-122 711.4635,-122 711.4635,-86 868.5365,-86 868.5365,-122"/>
<text text-anchor="middle" x="790" y="-99.8" font-family="Times,serif" font-size="14.00" fill="#000000">AppsRegisterComponent</text>
</g>
<!-- AppsRegisterComponent&#45;&gt;AppsModule -->
<g id="edge3" class="edge">
<title>AppsRegisterComponent&#45;&gt;AppsModule</title>
<path fill="none" stroke="#000000" d="M790,-122.027C790,-138.3976 790,-160 790,-160 790,-160 593.5845,-160 593.5845,-160"/>
<polygon fill="#000000" stroke="#000000" points="593.5846,-156.5001 583.5845,-160 593.5845,-163.5001 593.5846,-156.5001"/>
</g>
<!-- AppDetailsComponent -->
<g id="node4" class="node">
<title>AppDetailsComponent</title>
<polygon fill="#ffffb3" stroke="#000000" points="693.5912,-122 548.4088,-122 548.4088,-86 693.5912,-86 693.5912,-122"/>
<text text-anchor="middle" x="621" y="-99.8" font-family="Times,serif" font-size="14.00" fill="#000000">AppDetailsComponent</text>
</g>
<!-- AppDetailsComponent&#45;&gt;AppsModule -->
<g id="edge4" class="edge">
<title>AppDetailsComponent&#45;&gt;AppsModule</title>
<path fill="none" stroke="#000000" d="M566.0025,-122.1061C566.0025,-122.1061 566.0025,-140.991 566.0025,-140.991"/>
<polygon fill="#000000" stroke="#000000" points="562.5025,-140.9909 566.0025,-150.991 569.5025,-140.991 562.5025,-140.9909"/>
</g>
<!-- AppsRoutingModule -->
<g id="node6" class="node">
<title>AppsRoutingModule</title>
<polygon fill="#8dd3c7" stroke="#000000" points="524.219,-122 521.219,-126 500.219,-126 497.219,-122 389.781,-122 389.781,-86 524.219,-86 524.219,-122"/>
<text text-anchor="middle" x="457" y="-99.8" font-family="Times,serif" font-size="14.00" fill="#000000">AppsRoutingModule</text>
</g>
<!-- AppsRoutingModule&#45;&gt;AppsModule -->
<g id="edge5" class="edge">
<title>AppsRoutingModule&#45;&gt;AppsModule</title>
<path fill="none" stroke="#000000" d="M509.2795,-122.1061C509.2795,-122.1061 509.2795,-140.991 509.2795,-140.991"/>
<polygon fill="#000000" stroke="#000000" points="505.7795,-140.9909 509.2795,-150.991 512.7795,-140.991 505.7795,-140.9909"/>
</g>
<!-- SharedModule -->
<g id="node7" class="node">
<title>SharedModule</title>
<polygon fill="#8dd3c7" stroke="#000000" points="372.4231,-122 369.4231,-126 348.4231,-126 345.4231,-122 273.5769,-122 273.5769,-86 372.4231,-86 372.4231,-122"/>
<text text-anchor="middle" x="323" y="-99.8" font-family="Times,serif" font-size="14.00" fill="#000000">SharedModule</text>
</g>
<!-- SharedModule&#45;&gt;AppsModule -->
<g id="edge6" class="edge">
<title>SharedModule&#45;&gt;AppsModule</title>
<path fill="none" stroke="#000000" d="M323,-122.027C323,-138.3976 323,-160 323,-160 323,-160 484.2447,-160 484.2447,-160"/>
<polygon fill="#000000" stroke="#000000" points="484.2447,-163.5001 494.2447,-160 484.2446,-156.5001 484.2447,-163.5001"/>
</g>
<!-- AuthModule -->
<g id="node8" class="node">
<title>AuthModule</title>
<polygon fill="#8dd3c7" stroke="#000000" points="255.5482,-122 252.5482,-126 231.5482,-126 228.5482,-122 168.4518,-122 168.4518,-86 255.5482,-86 255.5482,-122"/>
<text text-anchor="middle" x="212" y="-99.8" font-family="Times,serif" font-size="14.00" fill="#000000">AuthModule</text>
</g>
<!-- AuthModule&#45;&gt;AppsModule -->
<g id="edge7" class="edge">
<title>AuthModule&#45;&gt;AppsModule</title>
<path fill="none" stroke="#000000" d="M212,-122.1061C212,-141.3391 212,-169 212,-169 212,-169 484.2177,-169 484.2177,-169"/>
<polygon fill="#000000" stroke="#000000" points="484.2177,-172.5001 494.2177,-169 484.2177,-165.5001 484.2177,-172.5001"/>
</g>
<!-- AppsService -->
<g id="node9" class="node">
<title>AppsService</title>
<ellipse fill="#fdb462" stroke="#000000" cx="84" cy="-104" rx="60.2518" ry="18"/>
<text text-anchor="middle" x="84" y="-99.8" font-family="Times,serif" font-size="14.00" fill="#000000">AppsService</text>
</g>
<!-- AppsService&#45;&gt;AppsModule -->
<g id="edge8" class="edge">
<title>AppsService&#45;&gt;AppsModule</title>
<path fill="none" stroke="#000000" d="M84,-122.2921C84,-144.2057 84,-178 84,-178 84,-178 484.1276,-178 484.1276,-178"/>
<polygon fill="#000000" stroke="#000000" points="484.1277,-181.5001 494.1276,-178 484.1276,-174.5001 484.1277,-181.5001"/>
</g>
</g>
</svg>
