<?xml version="1.0" encoding="UTF-8" standalone="no"?>
<!DOCTYPE svg PUBLIC "-//W3C//DTD SVG 1.1//EN"
 "http://www.w3.org/Graphics/SVG/1.1/DTD/svg11.dtd">
<!-- Generated by graphviz version 2.40.1 (20161225.0304)
 -->
<!-- Title: dependencies Pages: 1 -->
<svg width="2161pt" height="284pt"
 viewBox="0.00 0.00 2161.00 284.00" xmlns="http://www.w3.org/2000/svg" xmlns:xlink="http://www.w3.org/1999/xlink">
<g id="graph0" class="graph" transform="scale(1 1) rotate(0) translate(4 280)">
<title>dependencies</title>
<polygon fill="#ffffff" stroke="transparent" points="-4,4 -4,-280 2157,-280 2157,4 -4,4"/>
<text text-anchor="start" x="1055.5091" y="-42.4" font-family="sans-serif" font-weight="bold" font-size="14.00" fill="#000000">Legend</text>
<polygon fill="#ffffb3" stroke="transparent" points="842.5,-10 842.5,-30 862.5,-30 862.5,-10 842.5,-10"/>
<text text-anchor="start" x="866.129" y="-15.4" font-family="sans-serif" font-size="14.00" fill="#000000"> &#160;Declarations</text>
<polygon fill="#8dd3c7" stroke="transparent" points="955.5,-10 955.5,-30 975.5,-30 975.5,-10 955.5,-10"/>
<text text-anchor="start" x="979.2251" y="-15.4" font-family="sans-serif" font-size="14.00" fill="#000000"> &#160;Module</text>
<polygon fill="#80b1d3" stroke="transparent" points="1041.5,-10 1041.5,-30 1061.5,-30 1061.5,-10 1041.5,-10"/>
<text text-anchor="start" x="1065.2812" y="-15.4" font-family="sans-serif" font-size="14.00" fill="#000000"> &#160;Bootstrap</text>
<polygon fill="#fdb462" stroke="transparent" points="1138.5,-10 1138.5,-30 1158.5,-30 1158.5,-10 1138.5,-10"/>
<text text-anchor="start" x="1162.1732" y="-15.4" font-family="sans-serif" font-size="14.00" fill="#000000"> &#160;Providers</text>
<polygon fill="#fb8072" stroke="transparent" points="1234.5,-10 1234.5,-30 1254.5,-30 1254.5,-10 1234.5,-10"/>
<text text-anchor="start" x="1258.2258" y="-15.4" font-family="sans-serif" font-size="14.00" fill="#000000"> &#160;Exports</text>
<g id="clust1" class="cluster">
<title>cluster_SharedModule</title>
<polygon fill="none" stroke="#000000" stroke-dasharray="1,5" points="8,-70 8,-268 2145,-268 2145,-70 8,-70"/>
</g>
<g id="clust2" class="cluster">
<title>cluster_SharedModule_declarations</title>
<polygon fill="none" stroke="#000000" points="360,-78 360,-130 2137,-130 2137,-78 360,-78"/>
</g>
<g id="clust16" class="cluster">
<title>cluster_SharedModule_exports</title>
<polygon fill="none" stroke="#000000" points="248,-208 248,-260 1809,-260 1809,-208 248,-208"/>
</g>
<g id="clust18" class="cluster">
<title>cluster_SharedModule_providers</title>
<polygon fill="none" stroke="#000000" points="16,-78 16,-130 352,-130 352,-78 16,-78"/>
</g>
<!-- CapitalizePipe -->
<g id="node1" class="node">
<title>CapitalizePipe</title>
<polygon fill="#ffffb3" stroke="#000000" points="2128.6458,-122 2031.3542,-122 2031.3542,-86 2128.6458,-86 2128.6458,-122"/>
<text text-anchor="middle" x="2080" y="-99.8" font-family="Times,serif" font-size="14.00" fill="#000000">CapitalizePipe</text>
</g>
<!-- SharedModule -->
<g id="node13" class="node">
<title>SharedModule</title>
<polygon fill="#8dd3c7" stroke="#000000" points="1120.4231,-187 1117.4231,-191 1096.4231,-191 1093.4231,-187 1021.5769,-187 1021.5769,-151 1120.4231,-151 1120.4231,-187"/>
<text text-anchor="middle" x="1071" y="-164.8" font-family="Times,serif" font-size="14.00" fill="#000000">SharedModule</text>
</g>
<!-- CapitalizePipe&#45;&gt;SharedModule -->
<g id="edge1" class="edge">
<title>CapitalizePipe&#45;&gt;SharedModule</title>
<path fill="none" stroke="#000000" d="M2080,-122.308C2080,-142.1455 2080,-171 2080,-171 2080,-171 1130.3492,-171 1130.3492,-171"/>
<polygon fill="#000000" stroke="#000000" points="1130.3492,-167.5001 1120.3492,-171 1130.3492,-174.5001 1130.3492,-167.5001"/>
</g>
<!-- KeyValuePipe -->
<g id="node2" class="node">
<title>KeyValuePipe</title>
<polygon fill="#ffffb3" stroke="#000000" points="2012.6361,-122 1915.3639,-122 1915.3639,-86 2012.6361,-86 2012.6361,-122"/>
<text text-anchor="middle" x="1964" y="-99.8" font-family="Times,serif" font-size="14.00" fill="#000000">KeyValuePipe</text>
</g>
<!-- KeyValuePipe&#45;&gt;SharedModule -->
<g id="edge2" class="edge">
<title>KeyValuePipe&#45;&gt;SharedModule</title>
<path fill="none" stroke="#000000" d="M1964,-122.1686C1964,-141.0898 1964,-168 1964,-168 1964,-168 1130.2836,-168 1130.2836,-168"/>
<polygon fill="#000000" stroke="#000000" points="1130.2836,-164.5001 1120.2836,-168 1130.2835,-171.5001 1130.2836,-164.5001"/>
</g>
<!-- SearchfilterPipe -->
<g id="node3" class="node">
<title>SearchfilterPipe</title>
<polygon fill="#ffffb3" stroke="#000000" points="1897.1826,-122 1790.8174,-122 1790.8174,-86 1897.1826,-86 1897.1826,-122"/>
<text text-anchor="middle" x="1844" y="-99.8" font-family="Times,serif" font-size="14.00" fill="#000000">SearchfilterPipe</text>
</g>
<!-- SearchfilterPipe&#45;&gt;SharedModule -->
<g id="edge3" class="edge">
<title>SearchfilterPipe&#45;&gt;SharedModule</title>
<path fill="none" stroke="#000000" d="M1795.82,-122.302C1795.82,-140.2699 1795.82,-165 1795.82,-165 1795.82,-165 1130.25,-165 1130.25,-165"/>
<polygon fill="#000000" stroke="#000000" points="1130.25,-161.5001 1120.25,-165 1130.2499,-168.5001 1130.25,-161.5001"/>
</g>
<!-- TriStateButtonComponent -->
<g id="node4" class="node">
<title>TriStateButtonComponent</title>
<polygon fill="#ffffb3" stroke="#000000" points="1773.0476,-122 1608.9524,-122 1608.9524,-86 1773.0476,-86 1773.0476,-122"/>
<text text-anchor="middle" x="1691" y="-99.8" font-family="Times,serif" font-size="14.00" fill="#000000">TriStateButtonComponent</text>
</g>
<!-- TriStateButtonComponent&#45;&gt;SharedModule -->
<g id="edge4" class="edge">
<title>TriStateButtonComponent&#45;&gt;SharedModule</title>
<path fill="none" stroke="#000000" d="M1623.1496,-122.0352C1623.1496,-138.7344 1623.1496,-161 1623.1496,-161 1623.1496,-161 1130.4855,-161 1130.4855,-161"/>
<polygon fill="#000000" stroke="#000000" points="1130.4855,-157.5001 1120.4855,-161 1130.4855,-164.5001 1130.4855,-157.5001"/>
</g>
<!-- TriStateCheckboxComponent -->
<g id="node5" class="node">
<title>TriStateCheckboxComponent</title>
<polygon fill="#ffffb3" stroke="#000000" points="1590.6951,-122 1407.3049,-122 1407.3049,-86 1590.6951,-86 1590.6951,-122"/>
<text text-anchor="middle" x="1499" y="-99.8" font-family="Times,serif" font-size="14.00" fill="#000000">TriStateCheckboxComponent</text>
</g>
<!-- TriStateCheckboxComponent&#45;&gt;SharedModule -->
<g id="edge5" class="edge">
<title>TriStateCheckboxComponent&#45;&gt;SharedModule</title>
<path fill="none" stroke="#000000" d="M1462.813,-122.2819C1462.813,-137.9478 1462.813,-158 1462.813,-158 1462.813,-158 1130.2266,-158 1130.2266,-158"/>
<polygon fill="#000000" stroke="#000000" points="1130.2267,-154.5001 1120.2266,-158 1130.2266,-161.5001 1130.2267,-154.5001"/>
</g>
<!-- ClickOutsideDirective -->
<g id="node6" class="node">
<title>ClickOutsideDirective</title>
<polygon fill="#ffffb3" stroke="#000000" points="1388.9622,-122 1247.0378,-122 1247.0378,-86 1388.9622,-86 1388.9622,-122"/>
<text text-anchor="middle" x="1318" y="-99.8" font-family="Times,serif" font-size="14.00" fill="#000000">ClickOutsideDirective</text>
</g>
<!-- ClickOutsideDirective&#45;&gt;SharedModule -->
<g id="edge6" class="edge">
<title>ClickOutsideDirective&#45;&gt;SharedModule</title>
<path fill="none" stroke="#000000" d="M1297.5682,-122.1243C1297.5682,-136.7832 1297.5682,-155 1297.5682,-155 1297.5682,-155 1130.4414,-155 1130.4414,-155"/>
<polygon fill="#000000" stroke="#000000" points="1130.4414,-151.5001 1120.4414,-155 1130.4413,-158.5001 1130.4414,-151.5001"/>
</g>
<!-- PropertyTableComponent -->
<g id="node7" class="node">
<title>PropertyTableComponent</title>
<polygon fill="#ffffb3" stroke="#000000" points="1228.9143,-122 1067.0857,-122 1067.0857,-86 1228.9143,-86 1228.9143,-122"/>
<text text-anchor="middle" x="1148" y="-99.8" font-family="Times,serif" font-size="14.00" fill="#000000">PropertyTableComponent</text>
</g>
<!-- PropertyTableComponent&#45;&gt;SharedModule -->
<g id="edge7" class="edge">
<title>PropertyTableComponent&#45;&gt;SharedModule</title>
<path fill="none" stroke="#000000" d="M1093.7521,-122.1061C1093.7521,-122.1061 1093.7521,-140.991 1093.7521,-140.991"/>
<polygon fill="#000000" stroke="#000000" points="1090.2522,-140.9909 1093.7521,-150.991 1097.2522,-140.991 1090.2522,-140.9909"/>
</g>
<!-- TabsComponent -->
<g id="node8" class="node">
<title>TabsComponent</title>
<polygon fill="#ffffb3" stroke="#000000" points="1049.0452,-122 940.9548,-122 940.9548,-86 1049.0452,-86 1049.0452,-122"/>
<text text-anchor="middle" x="995" y="-99.8" font-family="Times,serif" font-size="14.00" fill="#000000">TabsComponent</text>
</g>
<!-- TabsComponent&#45;&gt;SharedModule -->
<g id="edge8" class="edge">
<title>TabsComponent&#45;&gt;SharedModule</title>
<path fill="none" stroke="#000000" d="M1035.5305,-122.1061C1035.5305,-122.1061 1035.5305,-140.991 1035.5305,-140.991"/>
<polygon fill="#000000" stroke="#000000" points="1032.0306,-140.9909 1035.5305,-150.991 1039.0306,-140.991 1032.0306,-140.9909"/>
</g>
<!-- TabComponent -->
<g id="node9" class="node">
<title>TabComponent</title>
<polygon fill="#ffffb3" stroke="#000000" points="922.5996,-122 819.4004,-122 819.4004,-86 922.5996,-86 922.5996,-122"/>
<text text-anchor="middle" x="871" y="-99.8" font-family="Times,serif" font-size="14.00" fill="#000000">TabComponent</text>
</g>
<!-- TabComponent&#45;&gt;SharedModule -->
<g id="edge9" class="edge">
<title>TabComponent&#45;&gt;SharedModule</title>
<path fill="none" stroke="#000000" d="M875.3543,-122.1243C875.3543,-136.7832 875.3543,-155 875.3543,-155 875.3543,-155 1011.6303,-155 1011.6303,-155"/>
<polygon fill="#000000" stroke="#000000" points="1011.6304,-158.5001 1021.6303,-155 1011.6303,-151.5001 1011.6304,-158.5001"/>
</g>
<!-- DataflowDateTimePipe -->
<g id="node10" class="node">
<title>DataflowDateTimePipe</title>
<polygon fill="#ffffb3" stroke="#000000" points="801.4468,-122 652.5532,-122 652.5532,-86 801.4468,-86 801.4468,-122"/>
<text text-anchor="middle" x="727" y="-99.8" font-family="Times,serif" font-size="14.00" fill="#000000">DataflowDateTimePipe</text>
</g>
<!-- DataflowDateTimePipe&#45;&gt;SharedModule -->
<g id="edge10" class="edge">
<title>DataflowDateTimePipe&#45;&gt;SharedModule</title>
<path fill="none" stroke="#000000" d="M727,-122.2819C727,-137.9478 727,-158 727,-158 727,-158 1011.7132,-158 1011.7132,-158"/>
<polygon fill="#000000" stroke="#000000" points="1011.7132,-161.5001 1021.7132,-158 1011.7132,-154.5001 1011.7132,-161.5001"/>
</g>
<!-- DataflowDurationPipe -->
<g id="node11" class="node">
<title>DataflowDurationPipe</title>
<polygon fill="#ffffb3" stroke="#000000" points="634.2352,-122 491.7648,-122 491.7648,-86 634.2352,-86 634.2352,-122"/>
<text text-anchor="middle" x="563" y="-99.8" font-family="Times,serif" font-size="14.00" fill="#000000">DataflowDurationPipe</text>
</g>
<!-- DataflowDurationPipe&#45;&gt;SharedModule -->
<g id="edge11" class="edge">
<title>DataflowDurationPipe&#45;&gt;SharedModule</title>
<path fill="none" stroke="#000000" d="M629.01,-122.0352C629.01,-138.7344 629.01,-161 629.01,-161 629.01,-161 1011.5847,-161 1011.5847,-161"/>
<polygon fill="#000000" stroke="#000000" points="1011.5847,-164.5001 1021.5847,-161 1011.5846,-157.5001 1011.5847,-164.5001"/>
</g>
<!-- MapValuesPipe -->
<g id="node12" class="node">
<title>MapValuesPipe</title>
<polygon fill="#ffffb3" stroke="#000000" points="473.9188,-122 368.0812,-122 368.0812,-86 473.9188,-86 473.9188,-122"/>
<text text-anchor="middle" x="421" y="-99.8" font-family="Times,serif" font-size="14.00" fill="#000000">MapValuesPipe</text>
</g>
<!-- MapValuesPipe&#45;&gt;SharedModule -->
<g id="edge12" class="edge">
<title>MapValuesPipe&#45;&gt;SharedModule</title>
<path fill="none" stroke="#000000" d="M455.8428,-122.302C455.8428,-140.2699 455.8428,-165 455.8428,-165 455.8428,-165 1011.699,-165 1011.699,-165"/>
<polygon fill="#000000" stroke="#000000" points="1011.699,-168.5001 1021.699,-165 1011.6989,-161.5001 1011.699,-168.5001"/>
</g>
<!-- ClickOutsideDirective  -->
<g id="node14" class="node">
<title>ClickOutsideDirective </title>
<polygon fill="#fb8072" stroke="#000000" points="1800.9629,-252 1655.0371,-252 1655.0371,-216 1800.9629,-216 1800.9629,-252"/>
<text text-anchor="middle" x="1728" y="-229.8" font-family="Times,serif" font-size="14.00" fill="#000000">ClickOutsideDirective </text>
</g>
<!-- SharedModule&#45;&gt;ClickOutsideDirective  -->
<g id="edge13" class="edge">
<title>SharedModule&#45;&gt;ClickOutsideDirective </title>
<path fill="none" stroke="#000000" stroke-dasharray="5,2" d="M1120.4083,-174C1271.0382,-174 1714.2712,-174 1714.2712,-174 1714.2712,-174 1714.2712,-205.998 1714.2712,-205.998"/>
<polygon fill="#000000" stroke="#000000" points="1710.7713,-205.998 1714.2712,-215.998 1717.7713,-205.9981 1710.7713,-205.998"/>
</g>
<!-- CapitalizePipe  -->
<g id="node15" class="node">
<title>CapitalizePipe </title>
<polygon fill="#fb8072" stroke="#000000" points="1637.6453,-252 1536.3547,-252 1536.3547,-216 1637.6453,-216 1637.6453,-252"/>
<text text-anchor="middle" x="1587" y="-229.8" font-family="Times,serif" font-size="14.00" fill="#000000">CapitalizePipe </text>
</g>
<!-- SharedModule&#45;&gt;CapitalizePipe  -->
<g id="edge14" class="edge">
<title>SharedModule&#45;&gt;CapitalizePipe </title>
<path fill="none" stroke="#000000" stroke-dasharray="5,2" d="M1120.479,-178C1245.3734,-178 1563.5125,-178 1563.5125,-178 1563.5125,-178 1563.5125,-205.973 1563.5125,-205.973"/>
<polygon fill="#000000" stroke="#000000" points="1560.0125,-205.973 1563.5125,-215.973 1567.0125,-205.973 1560.0125,-205.973"/>
</g>
<!-- DataflowDateTimePipe  -->
<g id="node16" class="node">
<title>DataflowDateTimePipe </title>
<polygon fill="#fb8072" stroke="#000000" points="1518.4475,-252 1365.5525,-252 1365.5525,-216 1518.4475,-216 1518.4475,-252"/>
<text text-anchor="middle" x="1442" y="-229.8" font-family="Times,serif" font-size="14.00" fill="#000000">DataflowDateTimePipe </text>
</g>
<!-- SharedModule&#45;&gt;DataflowDateTimePipe  -->
<g id="edge15" class="edge">
<title>SharedModule&#45;&gt;DataflowDateTimePipe </title>
<path fill="none" stroke="#000000" stroke-dasharray="5,2" d="M1120.2251,-181C1206.8313,-181 1377.3789,-181 1377.3789,-181 1377.3789,-181 1377.3789,-205.7604 1377.3789,-205.7604"/>
<polygon fill="#000000" stroke="#000000" points="1373.8789,-205.7604 1377.3789,-215.7604 1380.8789,-205.7604 1373.8789,-205.7604"/>
</g>
<!-- DataflowDurationPipe  -->
<g id="node17" class="node">
<title>DataflowDurationPipe </title>
<polygon fill="#fb8072" stroke="#000000" points="1348.2352,-252 1201.7648,-252 1201.7648,-216 1348.2352,-216 1348.2352,-252"/>
<text text-anchor="middle" x="1275" y="-229.8" font-family="Times,serif" font-size="14.00" fill="#000000">DataflowDurationPipe </text>
</g>
<!-- SharedModule&#45;&gt;DataflowDurationPipe  -->
<g id="edge16" class="edge">
<title>SharedModule&#45;&gt;DataflowDurationPipe </title>
<path fill="none" stroke="#000000" stroke-dasharray="5,2" d="M1120.2545,-184C1162.0555,-184 1215.2947,-184 1215.2947,-184 1215.2947,-184 1215.2947,-205.9489 1215.2947,-205.9489"/>
<polygon fill="#000000" stroke="#000000" points="1211.7948,-205.9488 1215.2947,-215.9489 1218.7948,-205.9489 1211.7948,-205.9488"/>
</g>
<!-- KeyValuePipe  -->
<g id="node18" class="node">
<title>KeyValuePipe </title>
<polygon fill="#fb8072" stroke="#000000" points="1183.6355,-252 1082.3645,-252 1082.3645,-216 1183.6355,-216 1183.6355,-252"/>
<text text-anchor="middle" x="1133" y="-229.8" font-family="Times,serif" font-size="14.00" fill="#000000">KeyValuePipe </text>
</g>
<!-- SharedModule&#45;&gt;KeyValuePipe  -->
<g id="edge17" class="edge">
<title>SharedModule&#45;&gt;KeyValuePipe </title>
<path fill="none" stroke="#000000" stroke-dasharray="5,2" d="M1101.3217,-187.1061C1101.3217,-187.1061 1101.3217,-205.991 1101.3217,-205.991"/>
<polygon fill="#000000" stroke="#000000" points="1097.8218,-205.9909 1101.3217,-215.991 1104.8218,-205.991 1097.8218,-205.9909"/>
</g>
<!-- MapValuesPipe  -->
<g id="node19" class="node">
<title>MapValuesPipe </title>
<polygon fill="#fb8072" stroke="#000000" points="1064.418,-252 955.582,-252 955.582,-216 1064.418,-216 1064.418,-252"/>
<text text-anchor="middle" x="1010" y="-229.8" font-family="Times,serif" font-size="14.00" fill="#000000">MapValuesPipe </text>
</g>
<!-- SharedModule&#45;&gt;MapValuesPipe  -->
<g id="edge18" class="edge">
<title>SharedModule&#45;&gt;MapValuesPipe </title>
<path fill="none" stroke="#000000" stroke-dasharray="5,2" d="M1043.124,-187.1061C1043.124,-187.1061 1043.124,-205.991 1043.124,-205.991"/>
<polygon fill="#000000" stroke="#000000" points="1039.624,-205.9909 1043.124,-215.991 1046.624,-205.991 1039.624,-205.9909"/>
</g>
<!-- SearchfilterPipe  -->
<g id="node20" class="node">
<title>SearchfilterPipe </title>
<polygon fill="#fb8072" stroke="#000000" points="937.6829,-252 828.3171,-252 828.3171,-216 937.6829,-216 937.6829,-252"/>
<text text-anchor="middle" x="883" y="-229.8" font-family="Times,serif" font-size="14.00" fill="#000000">SearchfilterPipe </text>
</g>
<!-- SharedModule&#45;&gt;SearchfilterPipe  -->
<g id="edge19" class="edge">
<title>SharedModule&#45;&gt;SearchfilterPipe </title>
<path fill="none" stroke="#000000" stroke-dasharray="5,2" d="M1021.7534,-184C981.1495,-184 930.1955,-184 930.1955,-184 930.1955,-184 930.1955,-205.9489 930.1955,-205.9489"/>
<polygon fill="#000000" stroke="#000000" points="926.6956,-205.9488 930.1955,-215.9489 933.6956,-205.9489 926.6956,-205.9488"/>
</g>
<!-- TriStateCheckboxComponent  -->
<g id="node21" class="node">
<title>TriStateCheckboxComponent </title>
<polygon fill="#fb8072" stroke="#000000" points="810.1952,-252 623.8048,-252 623.8048,-216 810.1952,-216 810.1952,-252"/>
<text text-anchor="middle" x="717" y="-229.8" font-family="Times,serif" font-size="14.00" fill="#000000">TriStateCheckboxComponent </text>
</g>
<!-- SharedModule&#45;&gt;TriStateCheckboxComponent  -->
<g id="edge20" class="edge">
<title>SharedModule&#45;&gt;TriStateCheckboxComponent </title>
<path fill="none" stroke="#000000" stroke-dasharray="5,2" d="M1021.7599,-181C945.098,-181 805.9105,-181 805.9105,-181 805.9105,-181 805.9105,-205.7604 805.9105,-205.7604"/>
<polygon fill="#000000" stroke="#000000" points="802.4105,-205.7604 805.9105,-215.7604 809.4105,-205.7604 802.4105,-205.7604"/>
</g>
<!-- TriStateButtonComponent  -->
<g id="node22" class="node">
<title>TriStateButtonComponent </title>
<polygon fill="#fb8072" stroke="#000000" points="606.047,-252 437.953,-252 437.953,-216 606.047,-216 606.047,-252"/>
<text text-anchor="middle" x="522" y="-229.8" font-family="Times,serif" font-size="14.00" fill="#000000">TriStateButtonComponent </text>
</g>
<!-- SharedModule&#45;&gt;TriStateButtonComponent  -->
<g id="edge21" class="edge">
<title>SharedModule&#45;&gt;TriStateButtonComponent </title>
<path fill="none" stroke="#000000" stroke-dasharray="5,2" d="M1021.4046,-178C891.0617,-178 548.828,-178 548.828,-178 548.828,-178 548.828,-205.973 548.828,-205.973"/>
<polygon fill="#000000" stroke="#000000" points="545.3281,-205.973 548.828,-215.973 552.3281,-205.973 545.3281,-205.973"/>
</g>
<!-- PropertyTableComponent  -->
<g id="node23" class="node">
<title>PropertyTableComponent </title>
<polygon fill="#fb8072" stroke="#000000" points="420.4138,-252 255.5862,-252 255.5862,-216 420.4138,-216 420.4138,-252"/>
<text text-anchor="middle" x="338" y="-229.8" font-family="Times,serif" font-size="14.00" fill="#000000">PropertyTableComponent </text>
</g>
<!-- SharedModule&#45;&gt;PropertyTableComponent  -->
<g id="edge22" class="edge">
<title>SharedModule&#45;&gt;PropertyTableComponent </title>
<path fill="none" stroke="#000000" stroke-dasharray="5,2" d="M1021.5202,-174C865.5389,-174 394.374,-174 394.374,-174 394.374,-174 394.374,-205.998 394.374,-205.998"/>
<polygon fill="#000000" stroke="#000000" points="390.874,-205.998 394.374,-215.998 397.874,-205.9981 390.874,-205.998"/>
</g>
<!-- SharedAppsService -->
<g id="node24" class="node">
<title>SharedAppsService</title>
<ellipse fill="#fdb462" stroke="#000000" cx="257" cy="-104" rx="87.3789" ry="18"/>
<text text-anchor="middle" x="257" y="-99.8" font-family="Times,serif" font-size="14.00" fill="#000000">SharedAppsService</text>
</g>
<!-- SharedAppsService&#45;&gt;SharedModule -->
<g id="edge23" class="edge">
<title>SharedAppsService&#45;&gt;SharedModule</title>
<path fill="none" stroke="#000000" d="M299.8662,-119.8202C299.8662,-138.7725 299.8662,-168 299.8662,-168 299.8662,-168 1011.589,-168 1011.589,-168"/>
<polygon fill="#000000" stroke="#000000" points="1011.5891,-171.5001 1021.589,-168 1011.589,-164.5001 1011.5891,-171.5001"/>
</g>
<!-- ParserService -->
<g id="node25" class="node">
<title>ParserService</title>
<ellipse fill="#fdb462" stroke="#000000" cx="88" cy="-104" rx="64.2378" ry="18"/>
<text text-anchor="middle" x="88" y="-99.8" font-family="Times,serif" font-size="14.00" fill="#000000">ParserService</text>
</g>
<!-- ParserService&#45;&gt;SharedModule -->
<g id="edge24" class="edge">
<title>ParserService&#45;&gt;SharedModule</title>
<path fill="none" stroke="#000000" d="M88,-122.308C88,-142.1455 88,-171 88,-171 88,-171 1011.5792,-171 1011.5792,-171"/>
<polygon fill="#000000" stroke="#000000" points="1011.5792,-174.5001 1021.5792,-171 1011.5792,-167.5001 1011.5792,-174.5001"/>
</g>
</g>
</svg>
