<?xml version="1.0" encoding="UTF-8" standalone="no"?>
<!DOCTYPE svg PUBLIC "-//W3C//DTD SVG 1.1//EN"
 "http://www.w3.org/Graphics/SVG/1.1/DTD/svg11.dtd">
<!-- Generated by graphviz version 2.40.1 (20161225.0304)
 -->
<!-- Title: dependencies Pages: 1 -->
<svg width="3788pt" height="211pt"
 viewBox="0.00 0.00 3788.00 211.00" xmlns="http://www.w3.org/2000/svg" xmlns:xlink="http://www.w3.org/1999/xlink">
<g id="graph0" class="graph" transform="scale(1 1) rotate(0) translate(4 207)">
<title>dependencies</title>
<polygon fill="#ffffff" stroke="transparent" points="-4,4 -4,-207 3784,-207 3784,4 -4,4"/>
<text text-anchor="start" x="1869.0091" y="-42.4" font-family="sans-serif" font-weight="bold" font-size="14.00" fill="#000000">Legend</text>
<polygon fill="#ffffb3" stroke="transparent" points="1656,-10 1656,-30 1676,-30 1676,-10 1656,-10"/>
<text text-anchor="start" x="1679.629" y="-15.4" font-family="sans-serif" font-size="14.00" fill="#000000"> &#160;Declarations</text>
<polygon fill="#8dd3c7" stroke="transparent" points="1769,-10 1769,-30 1789,-30 1789,-10 1769,-10"/>
<text text-anchor="start" x="1792.7251" y="-15.4" font-family="sans-serif" font-size="14.00" fill="#000000"> &#160;Module</text>
<polygon fill="#80b1d3" stroke="transparent" points="1855,-10 1855,-30 1875,-30 1875,-10 1855,-10"/>
<text text-anchor="start" x="1878.7812" y="-15.4" font-family="sans-serif" font-size="14.00" fill="#000000"> &#160;Bootstrap</text>
<polygon fill="#fdb462" stroke="transparent" points="1952,-10 1952,-30 1972,-30 1972,-10 1952,-10"/>
<text text-anchor="start" x="1975.6732" y="-15.4" font-family="sans-serif" font-size="14.00" fill="#000000"> &#160;Providers</text>
<polygon fill="#fb8072" stroke="transparent" points="2048,-10 2048,-30 2068,-30 2068,-10 2048,-10"/>
<text text-anchor="start" x="2071.7258" y="-15.4" font-family="sans-serif" font-size="14.00" fill="#000000"> &#160;Exports</text>
<g id="clust1" class="cluster">
<title>cluster_StreamsModule</title>
<polygon fill="none" stroke="#000000" stroke-dasharray="1,5" points="8,-70 8,-195 3772,-195 3772,-70 8,-70"/>
</g>
<g id="clust2" class="cluster">
<title>cluster_StreamsModule_declarations</title>
<polygon fill="none" stroke="#000000" points="1270,-78 1270,-130 3764,-130 3764,-78 1270,-78"/>
</g>
<g id="clust17" class="cluster">
<title>cluster_StreamsModule_imports</title>
<polygon fill="none" stroke="#000000" points="874,-78 874,-130 1262,-130 1262,-78 874,-78"/>
</g>
<g id="clust20" class="cluster">
<title>cluster_StreamsModule_providers</title>
<polygon fill="none" stroke="#000000" points="16,-78 16,-130 866,-130 866,-78 16,-78"/>
</g>
<!-- StreamsComponent -->
<g id="node1" class="node">
<title>StreamsComponent</title>
<polygon fill="#ffffb3" stroke="#000000" points="3756.4313,-122 3629.5687,-122 3629.5687,-86 3756.4313,-86 3756.4313,-122"/>
<text text-anchor="middle" x="3693" y="-99.8" font-family="Times,serif" font-size="14.00" fill="#000000">StreamsComponent</text>
</g>
<!-- StreamsModule -->
<g id="node15" class="node">
<title>StreamsModule</title>
<polygon fill="#8dd3c7" stroke="#000000" points="1886.1486,-187 1883.1486,-191 1862.1486,-191 1859.1486,-187 1781.8514,-187 1781.8514,-151 1886.1486,-151 1886.1486,-187"/>
<text text-anchor="middle" x="1834" y="-164.8" font-family="Times,serif" font-size="14.00" fill="#000000">StreamsModule</text>
</g>
<!-- StreamsComponent&#45;&gt;StreamsModule -->
<g id="edge1" class="edge">
<title>StreamsComponent&#45;&gt;StreamsModule</title>
<path fill="none" stroke="#000000" d="M3693,-122.1532C3693,-145.7566 3693,-184 3693,-184 3693,-184 1896.1501,-184 1896.1501,-184"/>
<polygon fill="#000000" stroke="#000000" points="1896.1501,-180.5001 1886.1501,-184 1896.15,-187.5001 1896.1501,-180.5001"/>
</g>
<!-- StreamCreateComponent -->
<g id="node2" class="node">
<title>StreamCreateComponent</title>
<polygon fill="#ffffb3" stroke="#000000" points="3611.5183,-122 3454.4817,-122 3454.4817,-86 3611.5183,-86 3611.5183,-122"/>
<text text-anchor="middle" x="3533" y="-99.8" font-family="Times,serif" font-size="14.00" fill="#000000">StreamCreateComponent</text>
</g>
<!-- StreamCreateComponent&#45;&gt;StreamsModule -->
<g id="edge2" class="edge">
<title>StreamCreateComponent&#45;&gt;StreamsModule</title>
<path fill="none" stroke="#000000" d="M3533,-122.2479C3533,-145.0179 3533,-181 3533,-181 3533,-181 1896.2421,-181 1896.2421,-181"/>
<polygon fill="#000000" stroke="#000000" points="1896.2421,-177.5001 1886.2421,-181 1896.2421,-184.5001 1896.2421,-177.5001"/>
</g>
<!-- StreamDefinitionsComponent -->
<g id="node3" class="node">
<title>StreamDefinitionsComponent</title>
<polygon fill="#ffffb3" stroke="#000000" points="3435.9748,-122 3252.0252,-122 3252.0252,-86 3435.9748,-86 3435.9748,-122"/>
<text text-anchor="middle" x="3344" y="-99.8" font-family="Times,serif" font-size="14.00" fill="#000000">StreamDefinitionsComponent</text>
</g>
<!-- StreamDefinitionsComponent&#45;&gt;StreamsModule -->
<g id="edge3" class="edge">
<title>StreamDefinitionsComponent&#45;&gt;StreamsModule</title>
<path fill="none" stroke="#000000" d="M3344,-122.2921C3344,-144.2057 3344,-178 3344,-178 3344,-178 1896.4161,-178 1896.4161,-178"/>
<polygon fill="#000000" stroke="#000000" points="1896.4162,-174.5001 1886.4161,-178 1896.4161,-181.5001 1896.4162,-174.5001"/>
</g>
<!-- StreamDetailsComponent -->
<g id="node4" class="node">
<title>StreamDetailsComponent</title>
<polygon fill="#ffffb3" stroke="#000000" points="3234.1386,-122 3073.8614,-122 3073.8614,-86 3234.1386,-86 3234.1386,-122"/>
<text text-anchor="middle" x="3154" y="-99.8" font-family="Times,serif" font-size="14.00" fill="#000000">StreamDetailsComponent</text>
</g>
<!-- StreamDetailsComponent&#45;&gt;StreamsModule -->
<g id="edge4" class="edge">
<title>StreamDetailsComponent&#45;&gt;StreamsModule</title>
<path fill="none" stroke="#000000" d="M3154,-122.0267C3154,-142.7672 3154,-174 3154,-174 3154,-174 1896.1521,-174 1896.1521,-174"/>
<polygon fill="#000000" stroke="#000000" points="1896.1522,-170.5001 1886.1521,-174 1896.1521,-177.5001 1896.1522,-170.5001"/>
</g>
<!-- StreamDeployComponent -->
<g id="node5" class="node">
<title>StreamDeployComponent</title>
<polygon fill="#ffffb3" stroke="#000000" points="3056.1979,-122 2893.8021,-122 2893.8021,-86 3056.1979,-86 3056.1979,-122"/>
<text text-anchor="middle" x="2975" y="-99.8" font-family="Times,serif" font-size="14.00" fill="#000000">StreamDeployComponent</text>
</g>
<!-- StreamDeployComponent&#45;&gt;StreamsModule -->
<g id="edge5" class="edge">
<title>StreamDeployComponent&#45;&gt;StreamsModule</title>
<path fill="none" stroke="#000000" d="M2975,-122.308C2975,-142.1455 2975,-171 2975,-171 2975,-171 1896.3673,-171 1896.3673,-171"/>
<polygon fill="#000000" stroke="#000000" points="1896.3673,-167.5001 1886.3673,-171 1896.3672,-174.5001 1896.3673,-167.5001"/>
</g>
<!-- StreamCreateDialogComponent -->
<g id="node6" class="node">
<title>StreamCreateDialogComponent</title>
<polygon fill="#ffffb3" stroke="#000000" points="2875.6204,-122 2680.3796,-122 2680.3796,-86 2875.6204,-86 2875.6204,-122"/>
<text text-anchor="middle" x="2778" y="-99.8" font-family="Times,serif" font-size="14.00" fill="#000000">StreamCreateDialogComponent</text>
</g>
<!-- StreamCreateDialogComponent&#45;&gt;StreamsModule -->
<g id="edge6" class="edge">
<title>StreamCreateDialogComponent&#45;&gt;StreamsModule</title>
<path fill="none" stroke="#000000" d="M2778,-122.1686C2778,-141.0898 2778,-168 2778,-168 2778,-168 1896.4368,-168 1896.4368,-168"/>
<polygon fill="#000000" stroke="#000000" points="1896.4368,-164.5001 1886.4368,-168 1896.4367,-171.5001 1896.4368,-164.5001"/>
</g>
<!-- PropertiesDialogComponent -->
<g id="node7" class="node">
<title>PropertiesDialogComponent</title>
<polygon fill="#ffffb3" stroke="#000000" points="2662.1937,-122 2485.8063,-122 2485.8063,-86 2662.1937,-86 2662.1937,-122"/>
<text text-anchor="middle" x="2574" y="-99.8" font-family="Times,serif" font-size="14.00" fill="#000000">PropertiesDialogComponent</text>
</g>
<!-- PropertiesDialogComponent&#45;&gt;StreamsModule -->
<g id="edge7" class="edge">
<title>PropertiesDialogComponent&#45;&gt;StreamsModule</title>
<path fill="none" stroke="#000000" d="M2574,-122.302C2574,-140.2699 2574,-165 2574,-165 2574,-165 1896.3302,-165 1896.3302,-165"/>
<polygon fill="#000000" stroke="#000000" points="1896.3302,-161.5001 1886.3302,-165 1896.3302,-168.5001 1896.3302,-161.5001"/>
</g>
<!-- NodeComponent -->
<g id="node8" class="node">
<title>NodeComponent</title>
<polygon fill="#ffffb3" stroke="#000000" points="2467.6541,-122 2356.3459,-122 2356.3459,-86 2467.6541,-86 2467.6541,-122"/>
<text text-anchor="middle" x="2412" y="-99.8" font-family="Times,serif" font-size="14.00" fill="#000000">NodeComponent</text>
</g>
<!-- NodeComponent&#45;&gt;StreamsModule -->
<g id="edge8" class="edge">
<title>NodeComponent&#45;&gt;StreamsModule</title>
<path fill="none" stroke="#000000" d="M2412,-122.0352C2412,-138.7344 2412,-161 2412,-161 2412,-161 1896.3131,-161 1896.3131,-161"/>
<polygon fill="#000000" stroke="#000000" points="1896.3131,-157.5001 1886.3131,-161 1896.313,-164.5001 1896.3131,-157.5001"/>
</g>
<!-- DecorationComponent -->
<g id="node9" class="node">
<title>DecorationComponent</title>
<polygon fill="#ffffb3" stroke="#000000" points="2337.5254,-122 2194.4746,-122 2194.4746,-86 2337.5254,-86 2337.5254,-122"/>
<text text-anchor="middle" x="2266" y="-99.8" font-family="Times,serif" font-size="14.00" fill="#000000">DecorationComponent</text>
</g>
<!-- DecorationComponent&#45;&gt;StreamsModule -->
<g id="edge9" class="edge">
<title>DecorationComponent&#45;&gt;StreamsModule</title>
<path fill="none" stroke="#000000" d="M2266,-122.2819C2266,-137.9478 2266,-158 2266,-158 2266,-158 1896.5398,-158 1896.5398,-158"/>
<polygon fill="#000000" stroke="#000000" points="1896.5398,-154.5001 1886.5398,-158 1896.5398,-161.5001 1896.5398,-154.5001"/>
</g>
<!-- HandleComponent -->
<g id="node10" class="node">
<title>HandleComponent</title>
<polygon fill="#ffffb3" stroke="#000000" points="2175.759,-122 2054.241,-122 2054.241,-86 2175.759,-86 2175.759,-122"/>
<text text-anchor="middle" x="2115" y="-99.8" font-family="Times,serif" font-size="14.00" fill="#000000">HandleComponent</text>
</g>
<!-- HandleComponent&#45;&gt;StreamsModule -->
<g id="edge10" class="edge">
<title>HandleComponent&#45;&gt;StreamsModule</title>
<path fill="none" stroke="#000000" d="M2115,-122.1243C2115,-136.7832 2115,-155 2115,-155 2115,-155 1896.1954,-155 1896.1954,-155"/>
<polygon fill="#000000" stroke="#000000" points="1896.1954,-151.5001 1886.1954,-155 1896.1954,-158.5001 1896.1954,-151.5001"/>
</g>
<!-- StreamGraphViewComponent -->
<g id="node11" class="node">
<title>StreamGraphViewComponent</title>
<polygon fill="#ffffb3" stroke="#000000" points="2036.2864,-122 1849.7136,-122 1849.7136,-86 2036.2864,-86 2036.2864,-122"/>
<text text-anchor="middle" x="1943" y="-99.8" font-family="Times,serif" font-size="14.00" fill="#000000">StreamGraphViewComponent</text>
</g>
<!-- StreamGraphViewComponent&#45;&gt;StreamsModule -->
<g id="edge11" class="edge">
<title>StreamGraphViewComponent&#45;&gt;StreamsModule</title>
<path fill="none" stroke="#000000" d="M1868.0905,-122.1061C1868.0905,-122.1061 1868.0905,-140.991 1868.0905,-140.991"/>
<polygon fill="#000000" stroke="#000000" points="1864.5905,-140.9909 1868.0905,-150.991 1871.5905,-140.991 1864.5905,-140.9909"/>
</g>
<!-- StreamGraphDefinitionComponent -->
<g id="node12" class="node">
<title>StreamGraphDefinitionComponent</title>
<polygon fill="#ffffb3" stroke="#000000" points="1831.5126,-122 1618.4874,-122 1618.4874,-86 1831.5126,-86 1831.5126,-122"/>
<text text-anchor="middle" x="1725" y="-99.8" font-family="Times,serif" font-size="14.00" fill="#000000">StreamGraphDefinitionComponent</text>
</g>
<!-- StreamGraphDefinitionComponent&#45;&gt;StreamsModule -->
<g id="edge12" class="edge">
<title>StreamGraphDefinitionComponent&#45;&gt;StreamsModule</title>
<path fill="none" stroke="#000000" d="M1806.716,-122.1061C1806.716,-122.1061 1806.716,-140.991 1806.716,-140.991"/>
<polygon fill="#000000" stroke="#000000" points="1803.2161,-140.9909 1806.716,-150.991 1810.2161,-140.991 1803.2161,-140.9909"/>
</g>
<!-- InstanceDotComponent -->
<g id="node13" class="node">
<title>InstanceDotComponent</title>
<polygon fill="#ffffb3" stroke="#000000" points="1600.4692,-122 1451.5308,-122 1451.5308,-86 1600.4692,-86 1600.4692,-122"/>
<text text-anchor="middle" x="1526" y="-99.8" font-family="Times,serif" font-size="14.00" fill="#000000">InstanceDotComponent</text>
</g>
<!-- InstanceDotComponent&#45;&gt;StreamsModule -->
<g id="edge13" class="edge">
<title>InstanceDotComponent&#45;&gt;StreamsModule</title>
<path fill="none" stroke="#000000" d="M1526,-122.1243C1526,-136.7832 1526,-155 1526,-155 1526,-155 1771.752,-155 1771.752,-155"/>
<polygon fill="#000000" stroke="#000000" points="1771.752,-158.5001 1781.752,-155 1771.752,-151.5001 1771.752,-158.5001"/>
</g>
<!-- MessageRateComponent -->
<g id="node14" class="node">
<title>MessageRateComponent</title>
<polygon fill="#ffffb3" stroke="#000000" points="1433.9664,-122 1278.0336,-122 1278.0336,-86 1433.9664,-86 1433.9664,-122"/>
<text text-anchor="middle" x="1356" y="-99.8" font-family="Times,serif" font-size="14.00" fill="#000000">MessageRateComponent</text>
</g>
<!-- MessageRateComponent&#45;&gt;StreamsModule -->
<g id="edge14" class="edge">
<title>MessageRateComponent&#45;&gt;StreamsModule</title>
<path fill="none" stroke="#000000" d="M1356,-122.2819C1356,-137.9478 1356,-158 1356,-158 1356,-158 1771.4783,-158 1771.4783,-158"/>
<polygon fill="#000000" stroke="#000000" points="1771.4783,-161.5001 1781.4783,-158 1771.4783,-154.5001 1771.4783,-161.5001"/>
</g>
<!-- StreamsRoutingModule -->
<g id="node16" class="node">
<title>StreamsRoutingModule</title>
<polygon fill="#8dd3c7" stroke="#000000" points="1253.766,-122 1250.766,-126 1229.766,-126 1226.766,-122 1104.234,-122 1104.234,-86 1253.766,-86 1253.766,-122"/>
<text text-anchor="middle" x="1179" y="-99.8" font-family="Times,serif" font-size="14.00" fill="#000000">StreamsRoutingModule</text>
</g>
<!-- StreamsRoutingModule&#45;&gt;StreamsModule -->
<g id="edge15" class="edge">
<title>StreamsRoutingModule&#45;&gt;StreamsModule</title>
<path fill="none" stroke="#000000" d="M1179,-122.0352C1179,-138.7344 1179,-161 1179,-161 1179,-161 1771.7811,-161 1771.7811,-161"/>
<polygon fill="#000000" stroke="#000000" points="1771.7811,-164.5001 1781.7811,-161 1771.7811,-157.5001 1771.7811,-164.5001"/>
</g>
<!-- SharedModule -->
<g id="node17" class="node">
<title>SharedModule</title>
<polygon fill="#8dd3c7" stroke="#000000" points="1086.4231,-122 1083.4231,-126 1062.4231,-126 1059.4231,-122 987.5769,-122 987.5769,-86 1086.4231,-86 1086.4231,-122"/>
<text text-anchor="middle" x="1037" y="-99.8" font-family="Times,serif" font-size="14.00" fill="#000000">SharedModule</text>
</g>
<!-- SharedModule&#45;&gt;StreamsModule -->
<g id="edge16" class="edge">
<title>SharedModule&#45;&gt;StreamsModule</title>
<path fill="none" stroke="#000000" d="M1037,-122.302C1037,-140.2699 1037,-165 1037,-165 1037,-165 1771.7066,-165 1771.7066,-165"/>
<polygon fill="#000000" stroke="#000000" points="1771.7066,-168.5001 1781.7066,-165 1771.7066,-161.5001 1771.7066,-168.5001"/>
</g>
<!-- AuthModule -->
<g id="node18" class="node">
<title>AuthModule</title>
<polygon fill="#8dd3c7" stroke="#000000" points="969.5482,-122 966.5482,-126 945.5482,-126 942.5482,-122 882.4518,-122 882.4518,-86 969.5482,-86 969.5482,-122"/>
<text text-anchor="middle" x="926" y="-99.8" font-family="Times,serif" font-size="14.00" fill="#000000">AuthModule</text>
</g>
<!-- AuthModule&#45;&gt;StreamsModule -->
<g id="edge17" class="edge">
<title>AuthModule&#45;&gt;StreamsModule</title>
<path fill="none" stroke="#000000" d="M926,-122.1686C926,-141.0898 926,-168 926,-168 926,-168 1771.5895,-168 1771.5895,-168"/>
<polygon fill="#000000" stroke="#000000" points="1771.5895,-171.5001 1781.5895,-168 1771.5895,-164.5001 1771.5895,-171.5001"/>
</g>
<!-- StreamsService -->
<g id="node19" class="node">
<title>StreamsService</title>
<ellipse fill="#fdb462" stroke="#000000" cx="787" cy="-104" rx="71.1998" ry="18"/>
<text text-anchor="middle" x="787" y="-99.8" font-family="Times,serif" font-size="14.00" fill="#000000">StreamsService</text>
</g>
<!-- StreamsService&#45;&gt;StreamsModule -->
<g id="edge18" class="edge">
<title>StreamsService&#45;&gt;StreamsModule</title>
<path fill="none" stroke="#000000" d="M787,-122.308C787,-142.1455 787,-171 787,-171 787,-171 1771.7209,-171 1771.7209,-171"/>
<polygon fill="#000000" stroke="#000000" points="1771.7209,-174.5001 1781.7209,-171 1771.7209,-167.5001 1771.7209,-174.5001"/>
</g>
<!-- MetamodelService -->
<g id="node20" class="node">
<title>MetamodelService</title>
<ellipse fill="#fdb462" stroke="#000000" cx="614" cy="-104" rx="83.945" ry="18"/>
<text text-anchor="middle" x="614" y="-99.8" font-family="Times,serif" font-size="14.00" fill="#000000">MetamodelService</text>
</g>
<!-- MetamodelService&#45;&gt;StreamsModule -->
<g id="edge19" class="edge">
<title>MetamodelService&#45;&gt;StreamsModule</title>
<path fill="none" stroke="#000000" d="M614,-122.0267C614,-142.7672 614,-174 614,-174 614,-174 1771.5781,-174 1771.5781,-174"/>
<polygon fill="#000000" stroke="#000000" points="1771.5782,-177.5001 1781.5781,-174 1771.5781,-170.5001 1771.5782,-177.5001"/>
</g>
<!-- RenderService -->
<g id="node21" class="node">
<title>RenderService</title>
<ellipse fill="#fdb462" stroke="#000000" cx="444" cy="-104" rx="67.7548" ry="18"/>
<text text-anchor="middle" x="444" y="-99.8" font-family="Times,serif" font-size="14.00" fill="#000000">RenderService</text>
</g>
<!-- RenderService&#45;&gt;StreamsModule -->
<g id="edge20" class="edge">
<title>RenderService&#45;&gt;StreamsModule</title>
<path fill="none" stroke="#000000" d="M444,-122.2921C444,-144.2057 444,-178 444,-178 444,-178 1771.6282,-178 1771.6282,-178"/>
<polygon fill="#000000" stroke="#000000" points="1771.6283,-181.5001 1781.6282,-178 1771.6282,-174.5001 1771.6283,-181.5001"/>
</g>
<!-- EditorService -->
<g id="node22" class="node">
<title>EditorService</title>
<ellipse fill="#fdb462" stroke="#000000" cx="294" cy="-104" rx="64.261" ry="18"/>
<text text-anchor="middle" x="294" y="-99.8" font-family="Times,serif" font-size="14.00" fill="#000000">EditorService</text>
</g>
<!-- EditorService&#45;&gt;StreamsModule -->
<g id="edge21" class="edge">
<title>EditorService&#45;&gt;StreamsModule</title>
<path fill="none" stroke="#000000" d="M294,-122.2479C294,-145.0179 294,-181 294,-181 294,-181 1771.4352,-181 1771.4352,-181"/>
<polygon fill="#000000" stroke="#000000" points="1771.4353,-184.5001 1781.4352,-181 1771.4352,-177.5001 1771.4353,-184.5001"/>
</g>
<!-- ContentAssistService -->
<g id="node23" class="node">
<title>ContentAssistService</title>
<ellipse fill="#fdb462" stroke="#000000" cx="118" cy="-104" rx="94.3543" ry="18"/>
<text text-anchor="middle" x="118" y="-99.8" font-family="Times,serif" font-size="14.00" fill="#000000">ContentAssistService</text>
</g>
<!-- ContentAssistService&#45;&gt;StreamsModule -->
<g id="edge22" class="edge">
<title>ContentAssistService&#45;&gt;StreamsModule</title>
<path fill="none" stroke="#000000" d="M118,-122.1532C118,-145.7566 118,-184 118,-184 118,-184 1771.7066,-184 1771.7066,-184"/>
<polygon fill="#000000" stroke="#000000" points="1771.7066,-187.5001 1781.7066,-184 1771.7065,-180.5001 1771.7066,-187.5001"/>
</g>
</g>
</svg>
