<?xml version="1.0" encoding="UTF-8" standalone="no"?>
<!DOCTYPE svg PUBLIC "-//W3C//DTD SVG 1.1//EN"
 "http://www.w3.org/Graphics/SVG/1.1/DTD/svg11.dtd">
<!-- Generated by graphviz version 2.40.1 (20161225.0304)
 -->
<!-- Title: dependencies Pages: 1 -->
<svg width="3379pt" height="211pt"
 viewBox="0.00 0.00 3379.00 211.00" xmlns="http://www.w3.org/2000/svg" xmlns:xlink="http://www.w3.org/1999/xlink">
<g id="graph0" class="graph" transform="scale(1 1) rotate(0) translate(4 207)">
<title>dependencies</title>
<polygon fill="#ffffff" stroke="transparent" points="-4,4 -4,-207 3375,-207 3375,4 -4,4"/>
<text text-anchor="start" x="1664.5091" y="-42.4" font-family="sans-serif" font-weight="bold" font-size="14.00" fill="#000000">Legend</text>
<polygon fill="#ffffb3" stroke="transparent" points="1451.5,-10 1451.5,-30 1471.5,-30 1471.5,-10 1451.5,-10"/>
<text text-anchor="start" x="1475.129" y="-15.4" font-family="sans-serif" font-size="14.00" fill="#000000"> &#160;Declarations</text>
<polygon fill="#8dd3c7" stroke="transparent" points="1564.5,-10 1564.5,-30 1584.5,-30 1584.5,-10 1564.5,-10"/>
<text text-anchor="start" x="1588.2251" y="-15.4" font-family="sans-serif" font-size="14.00" fill="#000000"> &#160;Module</text>
<polygon fill="#80b1d3" stroke="transparent" points="1650.5,-10 1650.5,-30 1670.5,-30 1670.5,-10 1650.5,-10"/>
<text text-anchor="start" x="1674.2812" y="-15.4" font-family="sans-serif" font-size="14.00" fill="#000000"> &#160;Bootstrap</text>
<polygon fill="#fdb462" stroke="transparent" points="1747.5,-10 1747.5,-30 1767.5,-30 1767.5,-10 1747.5,-10"/>
<text text-anchor="start" x="1771.1732" y="-15.4" font-family="sans-serif" font-size="14.00" fill="#000000"> &#160;Providers</text>
<polygon fill="#fb8072" stroke="transparent" points="1843.5,-10 1843.5,-30 1863.5,-30 1863.5,-10 1843.5,-10"/>
<text text-anchor="start" x="1867.2258" y="-15.4" font-family="sans-serif" font-size="14.00" fill="#000000"> &#160;Exports</text>
<g id="clust1" class="cluster">
<title>cluster_TasksModule</title>
<polygon fill="none" stroke="#000000" stroke-dasharray="1,5" points="8,-70 8,-195 3363,-195 3363,-70 8,-70"/>
</g>
<g id="clust2" class="cluster">
<title>cluster_TasksModule_declarations</title>
<polygon fill="none" stroke="#000000" points="1177,-78 1177,-130 3355,-130 3355,-78 1177,-78"/>
</g>
<g id="clust15" class="cluster">
<title>cluster_TasksModule_imports</title>
<polygon fill="none" stroke="#000000" points="793,-78 793,-130 1169,-130 1169,-78 793,-78"/>
</g>
<g id="clust18" class="cluster">
<title>cluster_TasksModule_providers</title>
<polygon fill="none" stroke="#000000" points="16,-78 16,-130 785,-130 785,-78 16,-78"/>
</g>
<!-- TasksComponent -->
<g id="node1" class="node">
<title>TasksComponent</title>
<polygon fill="#ffffb3" stroke="#000000" points="3346.9888,-122 3233.0112,-122 3233.0112,-86 3346.9888,-86 3346.9888,-122"/>
<text text-anchor="middle" x="3290" y="-99.8" font-family="Times,serif" font-size="14.00" fill="#000000">TasksComponent</text>
</g>
<!-- TasksModule -->
<g id="node13" class="node">
<title>TasksModule</title>
<polygon fill="#8dd3c7" stroke="#000000" points="1538.2064,-187 1535.2064,-191 1514.2064,-191 1511.2064,-187 1445.7936,-187 1445.7936,-151 1538.2064,-151 1538.2064,-187"/>
<text text-anchor="middle" x="1492" y="-164.8" font-family="Times,serif" font-size="14.00" fill="#000000">TasksModule</text>
</g>
<!-- TasksComponent&#45;&gt;TasksModule -->
<g id="edge1" class="edge">
<title>TasksComponent&#45;&gt;TasksModule</title>
<path fill="none" stroke="#000000" d="M3290,-122.1532C3290,-145.7566 3290,-184 3290,-184 3290,-184 1548.252,-184 1548.252,-184"/>
<polygon fill="#000000" stroke="#000000" points="1548.2521,-180.5001 1538.252,-184 1548.252,-187.5001 1548.2521,-180.5001"/>
</g>
<!-- TaskAppsComponent -->
<g id="node2" class="node">
<title>TaskAppsComponent</title>
<polygon fill="#ffffb3" stroke="#000000" points="3215.0954,-122 3076.9046,-122 3076.9046,-86 3215.0954,-86 3215.0954,-122"/>
<text text-anchor="middle" x="3146" y="-99.8" font-family="Times,serif" font-size="14.00" fill="#000000">TaskAppsComponent</text>
</g>
<!-- TaskAppsComponent&#45;&gt;TasksModule -->
<g id="edge2" class="edge">
<title>TaskAppsComponent&#45;&gt;TasksModule</title>
<path fill="none" stroke="#000000" d="M3146,-122.0109C3146,-144.4852 3146,-180 3146,-180 3146,-180 1548.3993,-180 1548.3993,-180"/>
<polygon fill="#000000" stroke="#000000" points="1548.3993,-176.5001 1538.3993,-180 1548.3992,-183.5001 1548.3993,-176.5001"/>
</g>
<!-- TaskDefinitionsComponent -->
<g id="node3" class="node">
<title>TaskDefinitionsComponent</title>
<polygon fill="#ffffb3" stroke="#000000" points="3058.5336,-122 2887.4664,-122 2887.4664,-86 3058.5336,-86 3058.5336,-122"/>
<text text-anchor="middle" x="2973" y="-99.8" font-family="Times,serif" font-size="14.00" fill="#000000">TaskDefinitionsComponent</text>
</g>
<!-- TaskDefinitionsComponent&#45;&gt;TasksModule -->
<g id="edge3" class="edge">
<title>TaskDefinitionsComponent&#45;&gt;TasksModule</title>
<path fill="none" stroke="#000000" d="M2973,-122.0449C2973,-143.6623 2973,-177 2973,-177 2973,-177 1548.3576,-177 1548.3576,-177"/>
<polygon fill="#000000" stroke="#000000" points="1548.3576,-173.5001 1538.3576,-177 1548.3575,-180.5001 1548.3576,-173.5001"/>
</g>
<!-- TaskCreateComposedTaskComponent -->
<g id="node4" class="node">
<title>TaskCreateComposedTaskComponent</title>
<polygon fill="#ffffb3" stroke="#000000" points="2869.1741,-122 2636.8259,-122 2636.8259,-86 2869.1741,-86 2869.1741,-122"/>
<text text-anchor="middle" x="2753" y="-99.8" font-family="Times,serif" font-size="14.00" fill="#000000">TaskCreateComposedTaskComponent</text>
</g>
<!-- TaskCreateComposedTaskComponent&#45;&gt;TasksModule -->
<g id="edge4" class="edge">
<title>TaskCreateComposedTaskComponent&#45;&gt;TasksModule</title>
<path fill="none" stroke="#000000" d="M2753,-122.1289C2753,-142.5724 2753,-173 2753,-173 2753,-173 1548.3752,-173 1548.3752,-173"/>
<polygon fill="#000000" stroke="#000000" points="1548.3752,-169.5001 1538.3752,-173 1548.3751,-176.5001 1548.3752,-169.5001"/>
</g>
<!-- TaskExecutionsComponent -->
<g id="node5" class="node">
<title>TaskExecutionsComponent</title>
<polygon fill="#ffffb3" stroke="#000000" points="2619.252,-122 2448.748,-122 2448.748,-86 2619.252,-86 2619.252,-122"/>
<text text-anchor="middle" x="2534" y="-99.8" font-family="Times,serif" font-size="14.00" fill="#000000">TaskExecutionsComponent</text>
</g>
<!-- TaskExecutionsComponent&#45;&gt;TasksModule -->
<g id="edge5" class="edge">
<title>TaskExecutionsComponent&#45;&gt;TasksModule</title>
<path fill="none" stroke="#000000" d="M2534,-122.1061C2534,-141.3391 2534,-169 2534,-169 2534,-169 1548.1179,-169 1548.1179,-169"/>
<polygon fill="#000000" stroke="#000000" points="1548.118,-165.5001 1538.1179,-169 1548.1179,-172.5001 1548.118,-165.5001"/>
</g>
<!-- TaskExecutionsDetailsComponent -->
<g id="node6" class="node">
<title>TaskExecutionsDetailsComponent</title>
<polygon fill="#ffffb3" stroke="#000000" points="2430.4044,-122 2219.5956,-122 2219.5956,-86 2430.4044,-86 2430.4044,-122"/>
<text text-anchor="middle" x="2325" y="-99.8" font-family="Times,serif" font-size="14.00" fill="#000000">TaskExecutionsDetailsComponent</text>
</g>
<!-- TaskExecutionsDetailsComponent&#45;&gt;TasksModule -->
<g id="edge6" class="edge">
<title>TaskExecutionsDetailsComponent&#45;&gt;TasksModule</title>
<path fill="none" stroke="#000000" d="M2325,-122.2667C2325,-140.5552 2325,-166 2325,-166 2325,-166 1548.271,-166 1548.271,-166"/>
<polygon fill="#000000" stroke="#000000" points="1548.271,-162.5001 1538.271,-166 1548.271,-169.5001 1548.271,-162.5001"/>
</g>
<!-- TaskAppDetailsComponent -->
<g id="node7" class="node">
<title>TaskAppDetailsComponent</title>
<polygon fill="#ffffb3" stroke="#000000" points="2202.3033,-122 2029.6967,-122 2029.6967,-86 2202.3033,-86 2202.3033,-122"/>
<text text-anchor="middle" x="2116" y="-99.8" font-family="Times,serif" font-size="14.00" fill="#000000">TaskAppDetailsComponent</text>
</g>
<!-- TaskAppDetailsComponent&#45;&gt;TasksModule -->
<g id="edge7" class="edge">
<title>TaskAppDetailsComponent&#45;&gt;TasksModule</title>
<path fill="none" stroke="#000000" d="M2116,-122.0336C2116,-139.0597 2116,-162 2116,-162 2116,-162 1548.1376,-162 1548.1376,-162"/>
<polygon fill="#000000" stroke="#000000" points="1548.1377,-158.5001 1538.1376,-162 1548.1376,-165.5001 1548.1377,-158.5001"/>
</g>
<!-- TaskCreateComponent -->
<g id="node8" class="node">
<title>TaskCreateComponent</title>
<polygon fill="#ffffb3" stroke="#000000" points="2011.5758,-122 1866.4242,-122 1866.4242,-86 2011.5758,-86 2011.5758,-122"/>
<text text-anchor="middle" x="1939" y="-99.8" font-family="Times,serif" font-size="14.00" fill="#000000">TaskCreateComponent</text>
</g>
<!-- TaskCreateComponent&#45;&gt;TasksModule -->
<g id="edge8" class="edge">
<title>TaskCreateComponent&#45;&gt;TasksModule</title>
<path fill="none" stroke="#000000" d="M1939,-122.0091C1939,-138.0494 1939,-159 1939,-159 1939,-159 1548.1532,-159 1548.1532,-159"/>
<polygon fill="#000000" stroke="#000000" points="1548.1533,-155.5001 1538.1532,-159 1548.1532,-162.5001 1548.1533,-155.5001"/>
</g>
<!-- TaskBulkDefineComponent -->
<g id="node9" class="node">
<title>TaskBulkDefineComponent</title>
<polygon fill="#ffffb3" stroke="#000000" points="1848.8585,-122 1675.1415,-122 1675.1415,-86 1848.8585,-86 1848.8585,-122"/>
<text text-anchor="middle" x="1762" y="-99.8" font-family="Times,serif" font-size="14.00" fill="#000000">TaskBulkDefineComponent</text>
</g>
<!-- TaskBulkDefineComponent&#45;&gt;TasksModule -->
<g id="edge9" class="edge">
<title>TaskBulkDefineComponent&#45;&gt;TasksModule</title>
<path fill="none" stroke="#000000" d="M1762,-122.1243C1762,-136.7832 1762,-155 1762,-155 1762,-155 1548.1079,-155 1548.1079,-155"/>
<polygon fill="#000000" stroke="#000000" points="1548.1079,-151.5001 1538.1079,-155 1548.1078,-158.5001 1548.1079,-151.5001"/>
</g>
<!-- TaskLaunchComponent -->
<g id="node10" class="node">
<title>TaskLaunchComponent</title>
<polygon fill="#ffffb3" stroke="#000000" points="1657.0267,-122 1506.9733,-122 1506.9733,-86 1657.0267,-86 1657.0267,-122"/>
<text text-anchor="middle" x="1582" y="-99.8" font-family="Times,serif" font-size="14.00" fill="#000000">TaskLaunchComponent</text>
</g>
<!-- TaskLaunchComponent&#45;&gt;TasksModule -->
<g id="edge10" class="edge">
<title>TaskLaunchComponent&#45;&gt;TasksModule</title>
<path fill="none" stroke="#000000" d="M1522.4201,-122.1061C1522.4201,-122.1061 1522.4201,-140.991 1522.4201,-140.991"/>
<polygon fill="#000000" stroke="#000000" points="1518.9201,-140.9909 1522.4201,-150.991 1525.9201,-140.991 1518.9201,-140.9909"/>
</g>
<!-- TaskGraphViewComponent -->
<g id="node11" class="node">
<title>TaskGraphViewComponent</title>
<polygon fill="#ffffb3" stroke="#000000" points="1488.8445,-122 1315.1555,-122 1315.1555,-86 1488.8445,-86 1488.8445,-122"/>
<text text-anchor="middle" x="1402" y="-99.8" font-family="Times,serif" font-size="14.00" fill="#000000">TaskGraphViewComponent</text>
</g>
<!-- TaskGraphViewComponent&#45;&gt;TasksModule -->
<g id="edge11" class="edge">
<title>TaskGraphViewComponent&#45;&gt;TasksModule</title>
<path fill="none" stroke="#000000" d="M1467.4095,-122.1061C1467.4095,-122.1061 1467.4095,-140.991 1467.4095,-140.991"/>
<polygon fill="#000000" stroke="#000000" points="1463.9096,-140.9909 1467.4095,-150.991 1470.9096,-140.991 1463.9096,-140.9909"/>
</g>
<!-- NodeComponent -->
<g id="node12" class="node">
<title>NodeComponent</title>
<polygon fill="#ffffb3" stroke="#000000" points="1296.6541,-122 1185.3459,-122 1185.3459,-86 1296.6541,-86 1296.6541,-122"/>
<text text-anchor="middle" x="1241" y="-99.8" font-family="Times,serif" font-size="14.00" fill="#000000">NodeComponent</text>
</g>
<!-- NodeComponent&#45;&gt;TasksModule -->
<g id="edge12" class="edge">
<title>NodeComponent&#45;&gt;TasksModule</title>
<path fill="none" stroke="#000000" d="M1241,-122.1243C1241,-136.7832 1241,-155 1241,-155 1241,-155 1435.6702,-155 1435.6702,-155"/>
<polygon fill="#000000" stroke="#000000" points="1435.6703,-158.5001 1445.6702,-155 1435.6702,-151.5001 1435.6703,-158.5001"/>
</g>
<!-- TasksRoutingModule -->
<g id="node14" class="node">
<title>TasksRoutingModule</title>
<polygon fill="#8dd3c7" stroke="#000000" points="1160.8244,-122 1157.8244,-126 1136.8244,-126 1133.8244,-122 1023.1756,-122 1023.1756,-86 1160.8244,-86 1160.8244,-122"/>
<text text-anchor="middle" x="1092" y="-99.8" font-family="Times,serif" font-size="14.00" fill="#000000">TasksRoutingModule</text>
</g>
<!-- TasksRoutingModule&#45;&gt;TasksModule -->
<g id="edge13" class="edge">
<title>TasksRoutingModule&#45;&gt;TasksModule</title>
<path fill="none" stroke="#000000" d="M1092,-122.0091C1092,-138.0494 1092,-159 1092,-159 1092,-159 1435.7242,-159 1435.7242,-159"/>
<polygon fill="#000000" stroke="#000000" points="1435.7242,-162.5001 1445.7242,-159 1435.7241,-155.5001 1435.7242,-162.5001"/>
</g>
<!-- SharedModule -->
<g id="node15" class="node">
<title>SharedModule</title>
<polygon fill="#8dd3c7" stroke="#000000" points="1005.4231,-122 1002.4231,-126 981.4231,-126 978.4231,-122 906.5769,-122 906.5769,-86 1005.4231,-86 1005.4231,-122"/>
<text text-anchor="middle" x="956" y="-99.8" font-family="Times,serif" font-size="14.00" fill="#000000">SharedModule</text>
</g>
<!-- SharedModule&#45;&gt;TasksModule -->
<g id="edge14" class="edge">
<title>SharedModule&#45;&gt;TasksModule</title>
<path fill="none" stroke="#000000" d="M956,-122.0336C956,-139.0597 956,-162 956,-162 956,-162 1435.837,-162 1435.837,-162"/>
<polygon fill="#000000" stroke="#000000" points="1435.8371,-165.5001 1445.837,-162 1435.837,-158.5001 1435.8371,-165.5001"/>
</g>
<!-- AuthModule -->
<g id="node16" class="node">
<title>AuthModule</title>
<polygon fill="#8dd3c7" stroke="#000000" points="888.5482,-122 885.5482,-126 864.5482,-126 861.5482,-122 801.4518,-122 801.4518,-86 888.5482,-86 888.5482,-122"/>
<text text-anchor="middle" x="845" y="-99.8" font-family="Times,serif" font-size="14.00" fill="#000000">AuthModule</text>
</g>
<!-- AuthModule&#45;&gt;TasksModule -->
<g id="edge15" class="edge">
<title>AuthModule&#45;&gt;TasksModule</title>
<path fill="none" stroke="#000000" d="M845,-122.2667C845,-140.5552 845,-166 845,-166 845,-166 1435.729,-166 1435.729,-166"/>
<polygon fill="#000000" stroke="#000000" points="1435.729,-169.5001 1445.729,-166 1435.729,-162.5001 1435.729,-169.5001"/>
</g>
<!-- TasksService -->
<g id="node17" class="node">
<title>TasksService</title>
<ellipse fill="#fdb462" stroke="#000000" cx="714" cy="-104" rx="62.5354" ry="18"/>
<text text-anchor="middle" x="714" y="-99.8" font-family="Times,serif" font-size="14.00" fill="#000000">TasksService</text>
</g>
<!-- TasksService&#45;&gt;TasksModule -->
<g id="edge16" class="edge">
<title>TasksService&#45;&gt;TasksModule</title>
<path fill="none" stroke="#000000" d="M714,-122.1061C714,-141.3391 714,-169 714,-169 714,-169 1435.6625,-169 1435.6625,-169"/>
<polygon fill="#000000" stroke="#000000" points="1435.6625,-172.5001 1445.6625,-169 1435.6624,-165.5001 1435.6625,-172.5001"/>
</g>
<!-- MetamodelService -->
<g id="node18" class="node">
<title>MetamodelService</title>
<ellipse fill="#fdb462" stroke="#000000" cx="550" cy="-104" rx="83.945" ry="18"/>
<text text-anchor="middle" x="550" y="-99.8" font-family="Times,serif" font-size="14.00" fill="#000000">MetamodelService</text>
</g>
<!-- MetamodelService&#45;&gt;TasksModule -->
<g id="edge17" class="edge">
<title>MetamodelService&#45;&gt;TasksModule</title>
<path fill="none" stroke="#000000" d="M550,-122.1289C550,-142.5724 550,-173 550,-173 550,-173 1435.6074,-173 1435.6074,-173"/>
<polygon fill="#000000" stroke="#000000" points="1435.6074,-176.5001 1445.6074,-173 1435.6073,-169.5001 1435.6074,-176.5001"/>
</g>
<!-- RenderService -->
<g id="node19" class="node">
<title>RenderService</title>
<ellipse fill="#fdb462" stroke="#000000" cx="380" cy="-104" rx="67.7548" ry="18"/>
<text text-anchor="middle" x="380" y="-99.8" font-family="Times,serif" font-size="14.00" fill="#000000">RenderService</text>
</g>
<!-- RenderService&#45;&gt;TasksModule -->
<g id="edge18" class="edge">
<title>RenderService&#45;&gt;TasksModule</title>
<path fill="none" stroke="#000000" d="M380,-122.0449C380,-143.6623 380,-177 380,-177 380,-177 1435.6345,-177 1435.6345,-177"/>
<polygon fill="#000000" stroke="#000000" points="1435.6345,-180.5001 1445.6345,-177 1435.6344,-173.5001 1435.6345,-180.5001"/>
</g>
<!-- EditorService -->
<g id="node20" class="node">
<title>EditorService</title>
<ellipse fill="#fdb462" stroke="#000000" cx="230" cy="-104" rx="64.261" ry="18"/>
<text text-anchor="middle" x="230" y="-99.8" font-family="Times,serif" font-size="14.00" fill="#000000">EditorService</text>
</g>
<!-- EditorService&#45;&gt;TasksModule -->
<g id="edge19" class="edge">
<title>EditorService&#45;&gt;TasksModule</title>
<path fill="none" stroke="#000000" d="M230,-122.0109C230,-144.4852 230,-180 230,-180 230,-180 1435.5881,-180 1435.5881,-180"/>
<polygon fill="#000000" stroke="#000000" points="1435.5881,-183.5001 1445.5881,-180 1435.588,-176.5001 1435.5881,-183.5001"/>
</g>
<!-- ToolsService -->
<g id="node21" class="node">
<title>ToolsService</title>
<ellipse fill="#fdb462" stroke="#000000" cx="86" cy="-104" rx="61.975" ry="18"/>
<text text-anchor="middle" x="86" y="-99.8" font-family="Times,serif" font-size="14.00" fill="#000000">ToolsService</text>
</g>
<!-- ToolsService&#45;&gt;TasksModule -->
<g id="edge20" class="edge">
<title>ToolsService&#45;&gt;TasksModule</title>
<path fill="none" stroke="#000000" d="M86,-122.1532C86,-145.7566 86,-184 86,-184 86,-184 1435.6203,-184 1435.6203,-184"/>
<polygon fill="#000000" stroke="#000000" points="1435.6204,-187.5001 1445.6203,-184 1435.6203,-180.5001 1435.6204,-187.5001"/>
</g>
</g>
</svg>
