<?xml version="1.0" encoding="UTF-8" standalone="no"?>
<!DOCTYPE svg PUBLIC "-//W3C//DTD SVG 1.1//EN"
 "http://www.w3.org/Graphics/SVG/1.1/DTD/svg11.dtd">
<!-- Generated by graphviz version 2.40.1 (20161225.0304)
 -->
<!-- Title: dependencies Pages: 1 -->
<svg width="1378pt" height="284pt"
 viewBox="0.00 0.00 1378.00 284.00" xmlns="http://www.w3.org/2000/svg" xmlns:xlink="http://www.w3.org/1999/xlink">
<g id="graph0" class="graph" transform="scale(1 1) rotate(0) translate(4 280)">
<title>dependencies</title>
<polygon fill="#ffffff" stroke="transparent" points="-4,4 -4,-280 1374,-280 1374,4 -4,4"/>
<text text-anchor="start" x="664.0091" y="-42.4" font-family="sans-serif" font-weight="bold" font-size="14.00" fill="#000000">Legend</text>
<polygon fill="#ffffb3" stroke="transparent" points="451,-10 451,-30 471,-30 471,-10 451,-10"/>
<text text-anchor="start" x="474.629" y="-15.4" font-family="sans-serif" font-size="14.00" fill="#000000"> &#160;Declarations</text>
<polygon fill="#8dd3c7" stroke="transparent" points="564,-10 564,-30 584,-30 584,-10 564,-10"/>
<text text-anchor="start" x="587.7251" y="-15.4" font-family="sans-serif" font-size="14.00" fill="#000000"> &#160;Module</text>
<polygon fill="#80b1d3" stroke="transparent" points="650,-10 650,-30 670,-30 670,-10 650,-10"/>
<text text-anchor="start" x="673.7812" y="-15.4" font-family="sans-serif" font-size="14.00" fill="#000000"> &#160;Bootstrap</text>
<polygon fill="#fdb462" stroke="transparent" points="747,-10 747,-30 767,-30 767,-10 747,-10"/>
<text text-anchor="start" x="770.6732" y="-15.4" font-family="sans-serif" font-size="14.00" fill="#000000"> &#160;Providers</text>
<polygon fill="#fb8072" stroke="transparent" points="843,-10 843,-30 863,-30 863,-10 843,-10"/>
<text text-anchor="start" x="866.7258" y="-15.4" font-family="sans-serif" font-size="14.00" fill="#000000"> &#160;Exports</text>
<g id="clust1" class="cluster">
<title>cluster_AppModule</title>
<polygon fill="none" stroke="#000000" stroke-dasharray="1,5" points="8,-70 8,-268 1362,-268 1362,-70 8,-70"/>
</g>
<g id="clust2" class="cluster">
<title>cluster_AppModule_declarations</title>
<polygon fill="none" stroke="#000000" points="1232,-78 1232,-130 1354,-130 1354,-78 1232,-78"/>
</g>
<g id="clust4" class="cluster">
<title>cluster_AppModule_imports</title>
<polygon fill="none" stroke="#000000" points="16,-78 16,-130 1224,-130 1224,-78 16,-78"/>
</g>
<g id="clust6" class="cluster">
<title>cluster_AppModule_bootstrap</title>
<polygon fill="none" stroke="#000000" points="634,-208 634,-260 758,-260 758,-208 634,-208"/>
</g>
<!-- AppComponent -->
<g id="node1" class="node">
<title>AppComponent</title>
<polygon fill="#ffffb3" stroke="#000000" points="1345.9399,-122 1240.0601,-122 1240.0601,-86 1345.9399,-86 1345.9399,-122"/>
<text text-anchor="middle" x="1293" y="-99.8" font-family="Times,serif" font-size="14.00" fill="#000000">AppComponent</text>
</g>
<!-- AppModule -->
<g id="node2" class="node">
<title>AppModule</title>
<polygon fill="#8dd3c7" stroke="#000000" points="737.6571,-187 734.6571,-191 713.6571,-191 710.6571,-187 654.3429,-187 654.3429,-151 737.6571,-151 737.6571,-187"/>
<text text-anchor="middle" x="696" y="-164.8" font-family="Times,serif" font-size="14.00" fill="#000000">AppModule</text>
</g>
<!-- AppComponent&#45;&gt;AppModule -->
<g id="edge1" class="edge">
<title>AppComponent&#45;&gt;AppModule</title>
<path fill="none" stroke="#000000" d="M1293,-122.2479C1293,-145.0179 1293,-181 1293,-181 1293,-181 747.9799,-181 747.9799,-181"/>
<polygon fill="#000000" stroke="#000000" points="747.9799,-177.5001 737.9799,-181 747.9798,-184.5001 747.9799,-177.5001"/>
</g>
<!-- AppComponent  -->
<g id="node13" class="node">
<title>AppComponent </title>
<polygon fill="#80b1d3" stroke="#000000" points="750.439,-252 641.561,-252 641.561,-216 750.439,-216 750.439,-252"/>
<text text-anchor="middle" x="696" y="-229.8" font-family="Times,serif" font-size="14.00" fill="#000000">AppComponent </text>
</g>
<!-- AppModule&#45;&gt;AppComponent  -->
<g id="edge12" class="edge">
<title>AppModule&#45;&gt;AppComponent </title>
<path fill="none" stroke="#000000" stroke-dasharray="1,5" d="M696,-187.1061C696,-187.1061 696,-205.991 696,-205.991"/>
<polygon fill="#000000" stroke="#000000" points="692.5001,-205.9909 696,-215.991 699.5001,-205.991 692.5001,-205.9909"/>
</g>
<!-- AboutModule -->
<g id="node3" class="node">
<title>AboutModule</title>
<polygon fill="#8dd3c7" stroke="#000000" points="1216.0481,-122 1213.0481,-126 1192.0481,-126 1189.0481,-122 1121.9519,-122 1121.9519,-86 1216.0481,-86 1216.0481,-122"/>
<text text-anchor="middle" x="1169" y="-99.8" font-family="Times,serif" font-size="14.00" fill="#000000">AboutModule</text>
</g>
<!-- AboutModule&#45;&gt;AppModule -->
<g id="edge2" class="edge">
<title>AboutModule&#45;&gt;AppModule</title>
<path fill="none" stroke="#000000" d="M1169,-122.2843C1169,-143.3211 1169,-175 1169,-175 1169,-175 747.9756,-175 747.9756,-175"/>
<polygon fill="#000000" stroke="#000000" points="747.9756,-171.5001 737.9756,-175 747.9756,-178.5001 747.9756,-171.5001"/>
</g>
<!-- AnalyticsModule -->
<g id="node4" class="node">
<title>AnalyticsModule</title>
<polygon fill="#8dd3c7" stroke="#000000" points="1103.7022,-122 1100.7022,-126 1079.7022,-126 1076.7022,-122 990.2978,-122 990.2978,-86 1103.7022,-86 1103.7022,-122"/>
<text text-anchor="middle" x="1047" y="-99.8" font-family="Times,serif" font-size="14.00" fill="#000000">AnalyticsModule</text>
</g>
<!-- AnalyticsModule&#45;&gt;AppModule -->
<g id="edge3" class="edge">
<title>AnalyticsModule&#45;&gt;AppModule</title>
<path fill="none" stroke="#000000" d="M1047,-122.1061C1047,-141.3391 1047,-169 1047,-169 1047,-169 747.9902,-169 747.9902,-169"/>
<polygon fill="#000000" stroke="#000000" points="747.9902,-165.5001 737.9902,-169 747.9901,-172.5001 747.9902,-165.5001"/>
</g>
<!-- AppsModule -->
<g id="node5" class="node">
<title>AppsModule</title>
<polygon fill="#8dd3c7" stroke="#000000" points="972.6011,-122 969.6011,-126 948.6011,-126 945.6011,-122 883.3989,-122 883.3989,-86 972.6011,-86 972.6011,-122"/>
<text text-anchor="middle" x="928" y="-99.8" font-family="Times,serif" font-size="14.00" fill="#000000">AppsModule</text>
</g>
<!-- AppsModule&#45;&gt;AppModule -->
<g id="edge4" class="edge">
<title>AppsModule&#45;&gt;AppModule</title>
<path fill="none" stroke="#000000" d="M928,-122.0225C928,-139.3734 928,-163 928,-163 928,-163 747.7449,-163 747.7449,-163"/>
<polygon fill="#000000" stroke="#000000" points="747.7449,-159.5001 737.7449,-163 747.7449,-166.5001 747.7449,-159.5001"/>
</g>
<!-- AuthModule -->
<g id="node6" class="node">
<title>AuthModule</title>
<polygon fill="#8dd3c7" stroke="#000000" points="865.5482,-122 862.5482,-126 841.5482,-126 838.5482,-122 778.4518,-122 778.4518,-86 865.5482,-86 865.5482,-122"/>
<text text-anchor="middle" x="822" y="-99.8" font-family="Times,serif" font-size="14.00" fill="#000000">AuthModule</text>
</g>
<!-- AuthModule&#45;&gt;AppModule -->
<g id="edge5" class="edge">
<title>AuthModule&#45;&gt;AppModule</title>
<path fill="none" stroke="#000000" d="M822,-122.2396C822,-137.5706 822,-157 822,-157 822,-157 747.9562,-157 747.9562,-157"/>
<polygon fill="#000000" stroke="#000000" points="747.9562,-153.5001 737.9562,-157 747.9561,-160.5001 747.9562,-153.5001"/>
</g>
<!-- AppRoutingModule -->
<g id="node7" class="node">
<title>AppRoutingModule</title>
<polygon fill="#8dd3c7" stroke="#000000" points="760.2744,-122 757.2744,-126 736.2744,-126 733.2744,-122 631.7256,-122 631.7256,-86 760.2744,-86 760.2744,-122"/>
<text text-anchor="middle" x="696" y="-99.8" font-family="Times,serif" font-size="14.00" fill="#000000">AppRoutingModule</text>
</g>
<!-- AppRoutingModule&#45;&gt;AppModule -->
<g id="edge6" class="edge">
<title>AppRoutingModule&#45;&gt;AppModule</title>
<path fill="none" stroke="#000000" d="M696,-122.1061C696,-122.1061 696,-140.991 696,-140.991"/>
<polygon fill="#000000" stroke="#000000" points="692.5001,-140.9909 696,-150.991 699.5001,-140.991 692.5001,-140.9909"/>
</g>
<!-- JobsModule -->
<g id="node8" class="node">
<title>JobsModule</title>
<polygon fill="#8dd3c7" stroke="#000000" points="613.4401,-122 610.4401,-126 589.4401,-126 586.4401,-122 528.5599,-122 528.5599,-86 613.4401,-86 613.4401,-122"/>
<text text-anchor="middle" x="571" y="-99.8" font-family="Times,serif" font-size="14.00" fill="#000000">JobsModule</text>
</g>
<!-- JobsModule&#45;&gt;AppModule -->
<g id="edge7" class="edge">
<title>JobsModule&#45;&gt;AppModule</title>
<path fill="none" stroke="#000000" d="M571,-122.2396C571,-137.5706 571,-157 571,-157 571,-157 644.0291,-157 644.0291,-157"/>
<polygon fill="#000000" stroke="#000000" points="644.0291,-160.5001 654.0291,-157 644.029,-153.5001 644.0291,-160.5001"/>
</g>
<!-- RuntimeAppsModule -->
<g id="node9" class="node">
<title>RuntimeAppsModule</title>
<polygon fill="#8dd3c7" stroke="#000000" points="510.8244,-122 507.8244,-126 486.8244,-126 483.8244,-122 373.1756,-122 373.1756,-86 510.8244,-86 510.8244,-122"/>
<text text-anchor="middle" x="442" y="-99.8" font-family="Times,serif" font-size="14.00" fill="#000000">RuntimeAppsModule</text>
</g>
<!-- RuntimeAppsModule&#45;&gt;AppModule -->
<g id="edge8" class="edge">
<title>RuntimeAppsModule&#45;&gt;AppModule</title>
<path fill="none" stroke="#000000" d="M442,-122.0225C442,-139.3734 442,-163 442,-163 442,-163 644.3415,-163 644.3415,-163"/>
<polygon fill="#000000" stroke="#000000" points="644.3415,-166.5001 654.3415,-163 644.3415,-159.5001 644.3415,-166.5001"/>
</g>
<!-- SharedModule -->
<g id="node10" class="node">
<title>SharedModule</title>
<polygon fill="#8dd3c7" stroke="#000000" points="355.4231,-122 352.4231,-126 331.4231,-126 328.4231,-122 256.5769,-122 256.5769,-86 355.4231,-86 355.4231,-122"/>
<text text-anchor="middle" x="306" y="-99.8" font-family="Times,serif" font-size="14.00" fill="#000000">SharedModule</text>
</g>
<!-- SharedModule&#45;&gt;AppModule -->
<g id="edge9" class="edge">
<title>SharedModule&#45;&gt;AppModule</title>
<path fill="none" stroke="#000000" d="M306,-122.1061C306,-141.3391 306,-169 306,-169 306,-169 644.2632,-169 644.2632,-169"/>
<polygon fill="#000000" stroke="#000000" points="644.2632,-172.5001 654.2632,-169 644.2631,-165.5001 644.2632,-172.5001"/>
</g>
<!-- StreamsModule -->
<g id="node11" class="node">
<title>StreamsModule</title>
<polygon fill="#8dd3c7" stroke="#000000" points="238.1486,-122 235.1486,-126 214.1486,-126 211.1486,-122 133.8514,-122 133.8514,-86 238.1486,-86 238.1486,-122"/>
<text text-anchor="middle" x="186" y="-99.8" font-family="Times,serif" font-size="14.00" fill="#000000">StreamsModule</text>
</g>
<!-- StreamsModule&#45;&gt;AppModule -->
<g id="edge10" class="edge">
<title>StreamsModule&#45;&gt;AppModule</title>
<path fill="none" stroke="#000000" d="M186,-122.2843C186,-143.3211 186,-175 186,-175 186,-175 644.2646,-175 644.2646,-175"/>
<polygon fill="#000000" stroke="#000000" points="644.2646,-178.5001 654.2646,-175 644.2645,-171.5001 644.2646,-178.5001"/>
</g>
<!-- TasksModule -->
<g id="node12" class="node">
<title>TasksModule</title>
<polygon fill="#8dd3c7" stroke="#000000" points="116.2064,-122 113.2064,-126 92.2064,-126 89.2064,-122 23.7936,-122 23.7936,-86 116.2064,-86 116.2064,-122"/>
<text text-anchor="middle" x="70" y="-99.8" font-family="Times,serif" font-size="14.00" fill="#000000">TasksModule</text>
</g>
<!-- TasksModule&#45;&gt;AppModule -->
<g id="edge11" class="edge">
<title>TasksModule&#45;&gt;AppModule</title>
<path fill="none" stroke="#000000" d="M70,-122.2479C70,-145.0179 70,-181 70,-181 70,-181 643.9543,-181 643.9543,-181"/>
<polygon fill="#000000" stroke="#000000" points="643.9544,-184.5001 653.9543,-181 643.9543,-177.5001 643.9544,-184.5001"/>
</g>
</g>
</svg>
