<?xml version="1.0" encoding="UTF-8" standalone="no"?>
<!DOCTYPE svg PUBLIC "-//W3C//DTD SVG 1.1//EN"
 "http://www.w3.org/Graphics/SVG/1.1/DTD/svg11.dtd">
<!-- Generated by graphviz version 2.40.1 (20161225.0304)
 -->
<!-- Title: dependencies Pages: 1 -->
<svg width="750pt" height="211pt"
 viewBox="0.00 0.00 750.00 211.00" xmlns="http://www.w3.org/2000/svg" xmlns:xlink="http://www.w3.org/1999/xlink">
<g id="graph0" class="graph" transform="scale(1 1) rotate(0) translate(4 207)">
<title>dependencies</title>
<polygon fill="#ffffff" stroke="transparent" points="-4,4 -4,-207 746,-207 746,4 -4,4"/>
<text text-anchor="start" x="350.0091" y="-42.4" font-family="sans-serif" font-weight="bold" font-size="14.00" fill="#000000">Legend</text>
<polygon fill="#ffffb3" stroke="transparent" points="137,-10 137,-30 157,-30 157,-10 137,-10"/>
<text text-anchor="start" x="160.629" y="-15.4" font-family="sans-serif" font-size="14.00" fill="#000000"> &#160;Declarations</text>
<polygon fill="#8dd3c7" stroke="transparent" points="250,-10 250,-30 270,-30 270,-10 250,-10"/>
<text text-anchor="start" x="273.7251" y="-15.4" font-family="sans-serif" font-size="14.00" fill="#000000"> &#160;Module</text>
<polygon fill="#80b1d3" stroke="transparent" points="336,-10 336,-30 356,-30 356,-10 336,-10"/>
<text text-anchor="start" x="359.7812" y="-15.4" font-family="sans-serif" font-size="14.00" fill="#000000"> &#160;Bootstrap</text>
<polygon fill="#fdb462" stroke="transparent" points="433,-10 433,-30 453,-30 453,-10 433,-10"/>
<text text-anchor="start" x="456.6732" y="-15.4" font-family="sans-serif" font-size="14.00" fill="#000000"> &#160;Providers</text>
<polygon fill="#fb8072" stroke="transparent" points="529,-10 529,-30 549,-30 549,-10 529,-10"/>
<text text-anchor="start" x="552.7258" y="-15.4" font-family="sans-serif" font-size="14.00" fill="#000000"> &#160;Exports</text>
<g id="clust1" class="cluster">
<title>cluster_RuntimeAppsModule</title>
<polygon fill="none" stroke="#000000" stroke-dasharray="1,5" points="8,-70 8,-195 734,-195 734,-70 8,-70"/>
</g>
<g id="clust2" class="cluster">
<title>cluster_RuntimeAppsModule_declarations</title>
<polygon fill="none" stroke="#000000" points="550,-78 550,-130 726,-130 726,-78 550,-78"/>
</g>
<g id="clust4" class="cluster">
<title>cluster_RuntimeAppsModule_imports</title>
<polygon fill="none" stroke="#000000" points="228,-78 228,-130 542,-130 542,-78 228,-78"/>
</g>
<g id="clust7" class="cluster">
<title>cluster_RuntimeAppsModule_providers</title>
<polygon fill="none" stroke="#000000" points="16,-78 16,-130 220,-130 220,-78 16,-78"/>
</g>
<!-- RuntimeAppsComponent -->
<g id="node1" class="node">
<title>RuntimeAppsComponent</title>
<polygon fill="#ffffb3" stroke="#000000" points="717.6066,-122 558.3934,-122 558.3934,-86 717.6066,-86 717.6066,-122"/>
<text text-anchor="middle" x="638" y="-99.8" font-family="Times,serif" font-size="14.00" fill="#000000">RuntimeAppsComponent</text>
</g>
<!-- RuntimeAppsModule -->
<g id="node2" class="node">
<title>RuntimeAppsModule</title>
<polygon fill="#8dd3c7" stroke="#000000" points="432.8244,-187 429.8244,-191 408.8244,-191 405.8244,-187 295.1756,-187 295.1756,-151 432.8244,-151 432.8244,-187"/>
<text text-anchor="middle" x="364" y="-164.8" font-family="Times,serif" font-size="14.00" fill="#000000">RuntimeAppsModule</text>
</g>
<!-- RuntimeAppsComponent&#45;&gt;RuntimeAppsModule -->
<g id="edge1" class="edge">
<title>RuntimeAppsComponent&#45;&gt;RuntimeAppsModule</title>
<path fill="none" stroke="#000000" d="M638,-122.1061C638,-141.3391 638,-169 638,-169 638,-169 442.7881,-169 442.7881,-169"/>
<polygon fill="#000000" stroke="#000000" points="442.7881,-165.5001 432.7881,-169 442.7881,-172.5001 442.7881,-165.5001"/>
</g>
<!-- RuntimeAppsRoutingModule -->
<g id="node3" class="node">
<title>RuntimeAppsRoutingModule</title>
<polygon fill="#8dd3c7" stroke="#000000" points="534.4423,-122 531.4423,-126 510.4423,-126 507.4423,-122 351.5577,-122 351.5577,-86 534.4423,-86 534.4423,-122"/>
<text text-anchor="middle" x="443" y="-99.8" font-family="Times,serif" font-size="14.00" fill="#000000">RuntimeAppsRoutingModule</text>
</g>
<!-- RuntimeAppsRoutingModule&#45;&gt;RuntimeAppsModule -->
<g id="edge2" class="edge">
<title>RuntimeAppsRoutingModule&#45;&gt;RuntimeAppsModule</title>
<path fill="none" stroke="#000000" d="M392.2206,-122.1061C392.2206,-122.1061 392.2206,-140.991 392.2206,-140.991"/>
<polygon fill="#000000" stroke="#000000" points="388.7206,-140.9909 392.2206,-150.991 395.7206,-140.991 388.7206,-140.9909"/>
</g>
<!-- SharedModule -->
<g id="node4" class="node">
<title>SharedModule</title>
<polygon fill="#8dd3c7" stroke="#000000" points="334.4231,-122 331.4231,-126 310.4231,-126 307.4231,-122 235.5769,-122 235.5769,-86 334.4231,-86 334.4231,-122"/>
<text text-anchor="middle" x="285" y="-99.8" font-family="Times,serif" font-size="14.00" fill="#000000">SharedModule</text>
</g>
<!-- SharedModule&#45;&gt;RuntimeAppsModule -->
<g id="edge3" class="edge">
<title>SharedModule&#45;&gt;RuntimeAppsModule</title>
<path fill="none" stroke="#000000" d="M314.7745,-122.1061C314.7745,-122.1061 314.7745,-140.991 314.7745,-140.991"/>
<polygon fill="#000000" stroke="#000000" points="311.2746,-140.9909 314.7745,-150.991 318.2746,-140.991 311.2746,-140.9909"/>
</g>
<!-- RuntimeAppsService -->
<g id="node5" class="node">
<title>RuntimeAppsService</title>
<ellipse fill="#fdb462" stroke="#000000" cx="118" cy="-104" rx="93.7784" ry="18"/>
<text text-anchor="middle" x="118" y="-99.8" font-family="Times,serif" font-size="14.00" fill="#000000">RuntimeAppsService</text>
</g>
<!-- RuntimeAppsService&#45;&gt;RuntimeAppsModule -->
<g id="edge4" class="edge">
<title>RuntimeAppsService&#45;&gt;RuntimeAppsModule</title>
<path fill="none" stroke="#000000" d="M118,-122.1061C118,-141.3391 118,-169 118,-169 118,-169 285.1482,-169 285.1482,-169"/>
<polygon fill="#000000" stroke="#000000" points="285.1482,-172.5001 295.1482,-169 285.1481,-165.5001 285.1482,-172.5001"/>
</g>
</g>
</svg>
