<?xml version="1.0" encoding="UTF-8" standalone="no"?>
<!DOCTYPE svg PUBLIC "-//W3C//DTD SVG 1.1//EN"
 "http://www.w3.org/Graphics/SVG/1.1/DTD/svg11.dtd">
<!-- Generated by graphviz version 2.40.1 (20161225.0304)
 -->
<!-- Title: dependencies Pages: 1 -->
<svg width="1289pt" height="284pt"
 viewBox="0.00 0.00 1289.00 284.00" xmlns="http://www.w3.org/2000/svg" xmlns:xlink="http://www.w3.org/1999/xlink">
<g id="graph0" class="graph" transform="scale(1 1) rotate(0) translate(4 280)">
<title>dependencies</title>
<polygon fill="#ffffff" stroke="transparent" points="-4,4 -4,-280 1285,-280 1285,4 -4,4"/>
<text text-anchor="start" x="619.5091" y="-42.4" font-family="sans-serif" font-weight="bold" font-size="14.00" fill="#000000">Legend</text>
<polygon fill="#ffffb3" stroke="transparent" points="406.5,-10 406.5,-30 426.5,-30 426.5,-10 406.5,-10"/>
<text text-anchor="start" x="430.129" y="-15.4" font-family="sans-serif" font-size="14.00" fill="#000000"> &#160;Declarations</text>
<polygon fill="#8dd3c7" stroke="transparent" points="519.5,-10 519.5,-30 539.5,-30 539.5,-10 519.5,-10"/>
<text text-anchor="start" x="543.2251" y="-15.4" font-family="sans-serif" font-size="14.00" fill="#000000"> &#160;Module</text>
<polygon fill="#80b1d3" stroke="transparent" points="605.5,-10 605.5,-30 625.5,-30 625.5,-10 605.5,-10"/>
<text text-anchor="start" x="629.2812" y="-15.4" font-family="sans-serif" font-size="14.00" fill="#000000"> &#160;Bootstrap</text>
<polygon fill="#fdb462" stroke="transparent" points="702.5,-10 702.5,-30 722.5,-30 722.5,-10 702.5,-10"/>
<text text-anchor="start" x="726.1732" y="-15.4" font-family="sans-serif" font-size="14.00" fill="#000000"> &#160;Providers</text>
<polygon fill="#fb8072" stroke="transparent" points="798.5,-10 798.5,-30 818.5,-30 818.5,-10 798.5,-10"/>
<text text-anchor="start" x="822.2258" y="-15.4" font-family="sans-serif" font-size="14.00" fill="#000000"> &#160;Exports</text>
<g id="clust1" class="cluster">
<title>cluster_AuthModule</title>
<polygon fill="none" stroke="#000000" stroke-dasharray="1,5" points="8,-70 8,-268 1273,-268 1273,-70 8,-70"/>
</g>
<g id="clust2" class="cluster">
<title>cluster_AuthModule_declarations</title>
<polygon fill="none" stroke="#000000" points="558,-78 558,-130 1265,-130 1265,-78 558,-78"/>
</g>
<g id="clust8" class="cluster">
<title>cluster_AuthModule_imports</title>
<polygon fill="none" stroke="#000000" points="285,-78 285,-130 550,-130 550,-78 285,-78"/>
</g>
<g id="clust9" class="cluster">
<title>cluster_AuthModule_exports</title>
<polygon fill="none" stroke="#000000" points="506,-208 506,-260 772,-260 772,-208 506,-208"/>
</g>
<g id="clust11" class="cluster">
<title>cluster_AuthModule_providers</title>
<polygon fill="none" stroke="#000000" points="16,-78 16,-130 277,-130 277,-78 16,-78"/>
</g>
<!-- CapsLockDirective -->
<g id="node1" class="node">
<title>CapsLockDirective</title>
<polygon fill="#ffffb3" stroke="#000000" points="1257.3459,-122 1132.6541,-122 1132.6541,-86 1257.3459,-86 1257.3459,-122"/>
<text text-anchor="middle" x="1195" y="-99.8" font-family="Times,serif" font-size="14.00" fill="#000000">CapsLockDirective</text>
</g>
<!-- AuthModule -->
<g id="node6" class="node">
<title>AuthModule</title>
<polygon fill="#8dd3c7" stroke="#000000" points="688.5482,-187 685.5482,-191 664.5482,-191 661.5482,-187 601.4518,-187 601.4518,-151 688.5482,-151 688.5482,-187"/>
<text text-anchor="middle" x="645" y="-164.8" font-family="Times,serif" font-size="14.00" fill="#000000">AuthModule</text>
</g>
<!-- CapsLockDirective&#45;&gt;AuthModule -->
<g id="edge1" class="edge">
<title>CapsLockDirective&#45;&gt;AuthModule</title>
<path fill="none" stroke="#000000" d="M1195,-122.0109C1195,-144.4852 1195,-180 1195,-180 1195,-180 698.6173,-180 698.6173,-180"/>
<polygon fill="#000000" stroke="#000000" points="698.6173,-176.5001 688.6173,-180 698.6173,-183.5001 698.6173,-176.5001"/>
</g>
<!-- LoginComponent -->
<g id="node2" class="node">
<title>LoginComponent</title>
<polygon fill="#ffffb3" stroke="#000000" points="1114.2758,-122 999.7242,-122 999.7242,-86 1114.2758,-86 1114.2758,-122"/>
<text text-anchor="middle" x="1057" y="-99.8" font-family="Times,serif" font-size="14.00" fill="#000000">LoginComponent</text>
</g>
<!-- LoginComponent&#45;&gt;AuthModule -->
<g id="edge2" class="edge">
<title>LoginComponent&#45;&gt;AuthModule</title>
<path fill="none" stroke="#000000" d="M1057,-122.1289C1057,-142.5724 1057,-173 1057,-173 1057,-173 698.7012,-173 698.7012,-173"/>
<polygon fill="#000000" stroke="#000000" points="698.7012,-169.5001 688.7012,-173 698.7011,-176.5001 698.7012,-169.5001"/>
</g>
<!-- LogoutComponent -->
<g id="node3" class="node">
<title>LogoutComponent</title>
<polygon fill="#ffffb3" stroke="#000000" points="981.7758,-122 860.2242,-122 860.2242,-86 981.7758,-86 981.7758,-122"/>
<text text-anchor="middle" x="921" y="-99.8" font-family="Times,serif" font-size="14.00" fill="#000000">LogoutComponent</text>
</g>
<!-- LogoutComponent&#45;&gt;AuthModule -->
<g id="edge3" class="edge">
<title>LogoutComponent&#45;&gt;AuthModule</title>
<path fill="none" stroke="#000000" d="M921,-122.2667C921,-140.5552 921,-166 921,-166 921,-166 698.733,-166 698.733,-166"/>
<polygon fill="#000000" stroke="#000000" points="698.7331,-162.5001 688.733,-166 698.733,-169.5001 698.7331,-162.5001"/>
</g>
<!-- RolesDirective -->
<g id="node4" class="node">
<title>RolesDirective</title>
<polygon fill="#ffffb3" stroke="#000000" points="841.9692,-122 742.0308,-122 742.0308,-86 841.9692,-86 841.9692,-122"/>
<text text-anchor="middle" x="792" y="-99.8" font-family="Times,serif" font-size="14.00" fill="#000000">RolesDirective</text>
</g>
<!-- RolesDirective&#45;&gt;AuthModule -->
<g id="edge4" class="edge">
<title>RolesDirective&#45;&gt;AuthModule</title>
<path fill="none" stroke="#000000" d="M752.875,-122.0091C752.875,-138.0494 752.875,-159 752.875,-159 752.875,-159 698.5659,-159 698.5659,-159"/>
<polygon fill="#000000" stroke="#000000" points="698.566,-155.5001 688.5659,-159 698.5659,-162.5001 698.566,-155.5001"/>
</g>
<!-- RolesMissingComponent -->
<g id="node5" class="node">
<title>RolesMissingComponent</title>
<polygon fill="#ffffb3" stroke="#000000" points="724.3342,-122 565.6658,-122 565.6658,-86 724.3342,-86 724.3342,-122"/>
<text text-anchor="middle" x="645" y="-99.8" font-family="Times,serif" font-size="14.00" fill="#000000">RolesMissingComponent</text>
</g>
<!-- RolesMissingComponent&#45;&gt;AuthModule -->
<g id="edge5" class="edge">
<title>RolesMissingComponent&#45;&gt;AuthModule</title>
<path fill="none" stroke="#000000" d="M645,-122.1061C645,-122.1061 645,-140.991 645,-140.991"/>
<polygon fill="#000000" stroke="#000000" points="641.5001,-140.9909 645,-150.991 648.5001,-140.991 641.5001,-140.9909"/>
</g>
<!-- RolesDirective  -->
<g id="node9" class="node">
<title>RolesDirective </title>
<polygon fill="#fb8072" stroke="#000000" points="763.9703,-252 660.0297,-252 660.0297,-216 763.9703,-216 763.9703,-252"/>
<text text-anchor="middle" x="712" y="-229.8" font-family="Times,serif" font-size="14.00" fill="#000000">RolesDirective </text>
</g>
<!-- AuthModule&#45;&gt;RolesDirective  -->
<g id="edge8" class="edge">
<title>AuthModule&#45;&gt;RolesDirective </title>
<path fill="none" stroke="#000000" stroke-dasharray="5,2" d="M674.5195,-187.1061C674.5195,-187.1061 674.5195,-205.991 674.5195,-205.991"/>
<polygon fill="#000000" stroke="#000000" points="671.0195,-205.9909 674.5195,-215.991 678.0195,-205.991 671.0195,-205.9909"/>
</g>
<!-- CapsLockDirective  -->
<g id="node10" class="node">
<title>CapsLockDirective </title>
<polygon fill="#fb8072" stroke="#000000" points="642.3463,-252 513.6537,-252 513.6537,-216 642.3463,-216 642.3463,-252"/>
<text text-anchor="middle" x="578" y="-229.8" font-family="Times,serif" font-size="14.00" fill="#000000">CapsLockDirective </text>
</g>
<!-- AuthModule&#45;&gt;CapsLockDirective  -->
<g id="edge9" class="edge">
<title>AuthModule&#45;&gt;CapsLockDirective </title>
<path fill="none" stroke="#000000" stroke-dasharray="5,2" d="M621.6997,-187.1061C621.6997,-187.1061 621.6997,-205.991 621.6997,-205.991"/>
<polygon fill="#000000" stroke="#000000" points="618.1998,-205.9909 621.6997,-215.991 625.1998,-205.991 618.1998,-205.9909"/>
</g>
<!-- AuthRoutingModule -->
<g id="node7" class="node">
<title>AuthRoutingModule</title>
<polygon fill="#8dd3c7" stroke="#000000" points="542.1652,-122 539.1652,-126 518.1652,-126 515.1652,-122 409.8348,-122 409.8348,-86 542.1652,-86 542.1652,-122"/>
<text text-anchor="middle" x="476" y="-99.8" font-family="Times,serif" font-size="14.00" fill="#000000">AuthRoutingModule</text>
</g>
<!-- AuthRoutingModule&#45;&gt;AuthModule -->
<g id="edge6" class="edge">
<title>AuthRoutingModule&#45;&gt;AuthModule</title>
<path fill="none" stroke="#000000" d="M528.0798,-122.0091C528.0798,-138.0494 528.0798,-159 528.0798,-159 528.0798,-159 591.1306,-159 591.1306,-159"/>
<polygon fill="#000000" stroke="#000000" points="591.1306,-162.5001 601.1306,-159 591.1305,-155.5001 591.1306,-162.5001"/>
</g>
<!-- SharedModule -->
<g id="node8" class="node">
<title>SharedModule</title>
<polygon fill="#8dd3c7" stroke="#000000" points="391.4231,-122 388.4231,-126 367.4231,-126 364.4231,-122 292.5769,-122 292.5769,-86 391.4231,-86 391.4231,-122"/>
<text text-anchor="middle" x="342" y="-99.8" font-family="Times,serif" font-size="14.00" fill="#000000">SharedModule</text>
</g>
<!-- SharedModule&#45;&gt;AuthModule -->
<g id="edge7" class="edge">
<title>SharedModule&#45;&gt;AuthModule</title>
<path fill="none" stroke="#000000" d="M342,-122.2667C342,-140.5552 342,-166 342,-166 342,-166 591.2648,-166 591.2648,-166"/>
<polygon fill="#000000" stroke="#000000" points="591.2648,-169.5001 601.2648,-166 591.2648,-162.5001 591.2648,-169.5001"/>
</g>
<!-- AuthGuard -->
<g id="node11" class="node">
<title>AuthGuard</title>
<ellipse fill="#fdb462" stroke="#000000" cx="215" cy="-104" rx="54.4566" ry="18"/>
<text text-anchor="middle" x="215" y="-99.8" font-family="Times,serif" font-size="14.00" fill="#000000">AuthGuard</text>
</g>
<!-- AuthGuard&#45;&gt;AuthModule -->
<g id="edge10" class="edge">
<title>AuthGuard&#45;&gt;AuthModule</title>
<path fill="none" stroke="#000000" d="M215,-122.1289C215,-142.5724 215,-173 215,-173 215,-173 591.4029,-173 591.4029,-173"/>
<polygon fill="#000000" stroke="#000000" points="591.403,-176.5001 601.4029,-173 591.4029,-169.5001 591.403,-176.5001"/>
</g>
<!-- AuthService -->
<g id="node12" class="node">
<title>AuthService</title>
<ellipse fill="#fdb462" stroke="#000000" cx="83" cy="-104" rx="59.1083" ry="18"/>
<text text-anchor="middle" x="83" y="-99.8" font-family="Times,serif" font-size="14.00" fill="#000000">AuthService</text>
</g>
<!-- AuthService&#45;&gt;AuthModule -->
<g id="edge11" class="edge">
<title>AuthService&#45;&gt;AuthModule</title>
<path fill="none" stroke="#000000" d="M83,-122.0109C83,-144.4852 83,-180 83,-180 83,-180 591.3684,-180 591.3684,-180"/>
<polygon fill="#000000" stroke="#000000" points="591.3685,-183.5001 601.3684,-180 591.3684,-176.5001 591.3685,-183.5001"/>
</g>
</g>
</svg>
